G04 #@! TF.GenerationSoftware,KiCad,Pcbnew,(5.99.0-10539-g7356f9568d)*
G04 #@! TF.CreationDate,2021-06-02T15:47:53+01:00*
G04 #@! TF.ProjectId,CM4IOv5,434d3449-4f76-4352-9e6b-696361645f70,rev?*
G04 #@! TF.SameCoordinates,Original*
G04 #@! TF.FileFunction,Copper,L1,Top*
G04 #@! TF.FilePolarity,Positive*
%FSLAX46Y46*%
G04 Gerber Fmt 4.6, Leading zero omitted, Abs format (unit mm)*
G04 Created by KiCad (PCBNEW (5.99.0-10539-g7356f9568d)) date 2021-06-02 15:47:53*
%MOMM*%
%LPD*%
G01*
G04 APERTURE LIST*
G04 Aperture macros list*
%AMRoundRect*
0 Rectangle with rounded corners*
0 $1 Rounding radius*
0 $2 $3 $4 $5 $6 $7 $8 $9 X,Y pos of 4 corners*
0 Add a 4 corners polygon primitive as box body*
4,1,4,$2,$3,$4,$5,$6,$7,$8,$9,$2,$3,0*
0 Add four circle primitives for the rounded corners*
1,1,$1+$1,$2,$3*
1,1,$1+$1,$4,$5*
1,1,$1+$1,$6,$7*
1,1,$1+$1,$8,$9*
0 Add four rect primitives between the rounded corners*
20,1,$1+$1,$2,$3,$4,$5,0*
20,1,$1+$1,$4,$5,$6,$7,0*
20,1,$1+$1,$6,$7,$8,$9,0*
20,1,$1+$1,$8,$9,$2,$3,0*%
G04 Aperture macros list end*
G04 #@! TA.AperFunction,SMDPad,CuDef*
%ADD10RoundRect,0.135000X0.135000X0.185000X-0.135000X0.185000X-0.135000X-0.185000X0.135000X-0.185000X0*%
G04 #@! TD*
G04 #@! TA.AperFunction,SMDPad,CuDef*
%ADD11R,0.650000X0.400000*%
G04 #@! TD*
G04 #@! TA.AperFunction,SMDPad,CuDef*
%ADD12R,0.300000X0.550000*%
G04 #@! TD*
G04 #@! TA.AperFunction,SMDPad,CuDef*
%ADD13R,0.400000X0.550000*%
G04 #@! TD*
G04 #@! TA.AperFunction,SMDPad,CuDef*
%ADD14R,2.000000X2.000000*%
G04 #@! TD*
G04 #@! TA.AperFunction,SMDPad,CuDef*
%ADD15RoundRect,0.218750X-0.218750X-0.256250X0.218750X-0.256250X0.218750X0.256250X-0.218750X0.256250X0*%
G04 #@! TD*
G04 #@! TA.AperFunction,SMDPad,CuDef*
%ADD16R,0.700000X0.200000*%
G04 #@! TD*
G04 #@! TA.AperFunction,ComponentPad*
%ADD17R,0.850000X0.850000*%
G04 #@! TD*
G04 #@! TA.AperFunction,ComponentPad*
%ADD18O,0.850000X0.850000*%
G04 #@! TD*
G04 #@! TA.AperFunction,SMDPad,CuDef*
%ADD19RoundRect,0.140000X0.140000X0.170000X-0.140000X0.170000X-0.140000X-0.170000X0.140000X-0.170000X0*%
G04 #@! TD*
G04 #@! TA.AperFunction,ComponentPad*
%ADD20RoundRect,0.250500X-0.499500X-0.499500X0.499500X-0.499500X0.499500X0.499500X-0.499500X0.499500X0*%
G04 #@! TD*
G04 #@! TA.AperFunction,ComponentPad*
%ADD21C,1.500000*%
G04 #@! TD*
G04 #@! TA.AperFunction,ComponentPad*
%ADD22C,2.500000*%
G04 #@! TD*
G04 #@! TA.AperFunction,ViaPad*
%ADD23C,0.450000*%
G04 #@! TD*
G04 #@! TA.AperFunction,Conductor*
%ADD24C,0.200000*%
G04 #@! TD*
G04 #@! TA.AperFunction,Conductor*
%ADD25C,0.127000*%
G04 #@! TD*
G04 #@! TA.AperFunction,Conductor*
%ADD26C,0.130000*%
G04 #@! TD*
G04 #@! TA.AperFunction,Conductor*
%ADD27C,0.400000*%
G04 #@! TD*
G04 #@! TA.AperFunction,Conductor*
%ADD28C,0.300000*%
G04 #@! TD*
G04 #@! TA.AperFunction,Conductor*
%ADD29C,0.500000*%
G04 #@! TD*
G04 #@! TA.AperFunction,Conductor*
%ADD30C,1.000000*%
G04 #@! TD*
G04 #@! TA.AperFunction,Conductor*
%ADD31C,0.254000*%
G04 #@! TD*
G04 APERTURE END LIST*
D10*
X115710000Y-91400000D03*
X114690000Y-91400000D03*
X115710000Y-94400000D03*
X114690000Y-94400000D03*
D11*
X110250000Y-90750000D03*
X110250000Y-91400000D03*
X110250000Y-92050000D03*
X112150000Y-92050000D03*
X112150000Y-90750000D03*
D12*
X120200000Y-113015000D03*
X119700000Y-113015000D03*
D13*
X119200000Y-113015000D03*
D12*
X118700000Y-113015000D03*
X118200000Y-113015000D03*
X118200000Y-113785000D03*
X118700000Y-113785000D03*
D13*
X119200000Y-113785000D03*
D12*
X119700000Y-113785000D03*
X120200000Y-113785000D03*
D10*
X109710000Y-107600000D03*
X108690000Y-107600000D03*
D14*
X119200000Y-91400000D03*
D15*
X122412500Y-94400000D03*
X123987500Y-94400000D03*
D16*
X102020000Y-90600000D03*
X105100000Y-90600000D03*
X102020000Y-91000000D03*
X105100000Y-91000000D03*
X102020000Y-91400000D03*
X105100000Y-91400000D03*
X102020000Y-91800000D03*
X105100000Y-91800000D03*
X102020000Y-92200000D03*
X105100000Y-92200000D03*
X102020000Y-92600000D03*
X105100000Y-92600000D03*
X102020000Y-93000000D03*
X105100000Y-93000000D03*
X102020000Y-93400000D03*
X105100000Y-93400000D03*
X102020000Y-93800000D03*
X105100000Y-93800000D03*
X102020000Y-94200000D03*
X105100000Y-94200000D03*
X102020000Y-94600000D03*
X105100000Y-94600000D03*
X102020000Y-95000000D03*
X105100000Y-95000000D03*
X102020000Y-95400000D03*
X105100000Y-95400000D03*
X102020000Y-95800000D03*
X105100000Y-95800000D03*
X102020000Y-96200000D03*
X105100000Y-96200000D03*
X102020000Y-96600000D03*
X105100000Y-96600000D03*
X102020000Y-97000000D03*
X105100000Y-97000000D03*
X102020000Y-97400000D03*
X105100000Y-97400000D03*
X102020000Y-97800000D03*
X105100000Y-97800000D03*
X102020000Y-98200000D03*
X105100000Y-98200000D03*
X102020000Y-98600000D03*
X105100000Y-98600000D03*
X102020000Y-99000000D03*
X105100000Y-99000000D03*
X102020000Y-99400000D03*
X105100000Y-99400000D03*
X102020000Y-99800000D03*
X105100000Y-99800000D03*
X102020000Y-100200000D03*
X105100000Y-100200000D03*
X102020000Y-100600000D03*
X105100000Y-100600000D03*
X102020000Y-101000000D03*
X105100000Y-101000000D03*
X102020000Y-101400000D03*
X105100000Y-101400000D03*
X102020000Y-101800000D03*
X105100000Y-101800000D03*
X102020000Y-102200000D03*
X105100000Y-102200000D03*
X102020000Y-102600000D03*
X105100000Y-102600000D03*
X102020000Y-103000000D03*
X105100000Y-103000000D03*
X102020000Y-103400000D03*
X105100000Y-103400000D03*
X102020000Y-103800000D03*
X105100000Y-103800000D03*
X102020000Y-104200000D03*
X105100000Y-104200000D03*
X102020000Y-104600000D03*
X105100000Y-104600000D03*
X102020000Y-105000000D03*
X105100000Y-105000000D03*
X102020000Y-105400000D03*
X105100000Y-105400000D03*
X102020000Y-105800000D03*
X105100000Y-105800000D03*
X102020000Y-106200000D03*
X105100000Y-106200000D03*
X102020000Y-106600000D03*
X105100000Y-106600000D03*
X102020000Y-107000000D03*
X105100000Y-107000000D03*
X102020000Y-107400000D03*
X105100000Y-107400000D03*
X102020000Y-107800000D03*
X105100000Y-107800000D03*
X102020000Y-108200000D03*
X105100000Y-108200000D03*
X102020000Y-108600000D03*
X105100000Y-108600000D03*
X102020000Y-109000000D03*
X105100000Y-109000000D03*
X102020000Y-109400000D03*
X105100000Y-109400000D03*
X102020000Y-109800000D03*
X105100000Y-109800000D03*
X102020000Y-110200000D03*
X105100000Y-110200000D03*
D15*
X122412500Y-91400000D03*
X123987500Y-91400000D03*
D17*
X124200000Y-100400000D03*
D18*
X124200000Y-101400000D03*
D10*
X109710000Y-106400000D03*
X108690000Y-106400000D03*
D19*
X116017500Y-112700000D03*
X115057500Y-112700000D03*
D20*
X110485000Y-116497500D03*
D21*
X111755000Y-119037500D03*
X113025000Y-116497500D03*
X114295000Y-119037500D03*
X115565000Y-116497500D03*
X116835000Y-119037500D03*
X118105000Y-116497500D03*
X119375000Y-119037500D03*
X120645000Y-116497500D03*
X121915000Y-119037500D03*
X110485000Y-121557500D03*
X113025000Y-122827500D03*
X119375000Y-122827500D03*
X121915000Y-121557500D03*
X109570000Y-129447500D03*
X112110000Y-129447500D03*
X120290000Y-129447500D03*
X122830000Y-129447500D03*
D22*
X108325000Y-122337500D03*
X124075000Y-122337500D03*
D12*
X113200000Y-113015000D03*
X112700000Y-113015000D03*
D13*
X112200000Y-113015000D03*
D12*
X111700000Y-113015000D03*
X111200000Y-113015000D03*
X111200000Y-113785000D03*
X111700000Y-113785000D03*
D13*
X112200000Y-113785000D03*
D12*
X112700000Y-113785000D03*
X113200000Y-113785000D03*
D14*
X119200000Y-94400000D03*
D23*
X121450000Y-112700000D03*
X124150000Y-117400000D03*
X102200000Y-110400000D03*
X101200000Y-106150000D03*
X108200000Y-118400000D03*
X119175011Y-112400000D03*
X101377101Y-107699704D03*
X112170483Y-112588469D03*
X101270484Y-90920278D03*
X101435806Y-104166129D03*
X109950000Y-103150000D03*
X101200000Y-106150000D03*
X101347273Y-100353306D03*
X101347273Y-100353306D03*
X124700000Y-110150000D03*
X100918000Y-109161016D03*
X111700000Y-96900000D03*
X106200000Y-108900000D03*
X101435806Y-98633871D03*
X125200000Y-89150000D03*
X102450000Y-114900000D03*
X101407690Y-95861537D03*
X101435806Y-102166129D03*
X106200000Y-109400000D03*
X119950000Y-103900000D03*
X122950000Y-97150000D03*
X101450000Y-97400000D03*
X114200000Y-112400000D03*
D24*
X109710000Y-106400000D02*
X109210480Y-106899520D01*
X109210480Y-106899520D02*
X109210480Y-108160480D01*
X109250000Y-108200000D02*
X119150000Y-108200000D01*
X109210480Y-108160480D02*
X109250000Y-108200000D01*
X121600000Y-130000000D02*
X121000000Y-130600000D01*
X121000000Y-130600000D02*
X113262500Y-130600000D01*
X119150000Y-108200000D02*
X125663500Y-114713500D01*
X125663500Y-114713500D02*
X125663500Y-124336500D01*
X125663500Y-124336500D02*
X121600000Y-128400000D01*
X121600000Y-128400000D02*
X121600000Y-130000000D01*
X113262500Y-130600000D02*
X112110000Y-129447500D01*
X122830000Y-129447500D02*
X125993020Y-126284480D01*
X125993020Y-126284480D02*
X125993020Y-114530246D01*
X125993020Y-114530246D02*
X119062774Y-107600000D01*
X119062774Y-107600000D02*
X109710000Y-107600000D01*
X105100000Y-107400000D02*
X105616514Y-107400000D01*
X105616514Y-107400000D02*
X105816514Y-107600000D01*
X105816514Y-107600000D02*
X108690000Y-107600000D01*
D25*
X111200000Y-113015000D02*
X110744060Y-113015000D01*
X110744060Y-113015000D02*
X110109059Y-113650000D01*
X110109059Y-113650000D02*
X101433420Y-113650000D01*
X101433420Y-113650000D02*
X99893020Y-112109600D01*
X99893020Y-112109600D02*
X99893020Y-108940400D01*
X99893020Y-108940400D02*
X100559940Y-108273480D01*
X100559940Y-108273480D02*
X101333100Y-108273480D01*
X101333100Y-108273480D02*
X101419591Y-108186989D01*
X101419591Y-108186989D02*
X102020000Y-108186989D01*
D26*
X113200000Y-113015000D02*
X113200000Y-112471992D01*
X113200000Y-112471992D02*
X112228008Y-111500000D01*
X112228008Y-111500000D02*
X110137481Y-111500000D01*
X110137481Y-111500000D02*
X109217001Y-112420480D01*
X109217001Y-112420480D02*
X102489182Y-112420480D01*
X102489182Y-112420480D02*
X101250000Y-111181298D01*
X101250000Y-111181298D02*
X101250000Y-110090602D01*
X101250000Y-110090602D02*
X101526091Y-109814511D01*
X101526091Y-109814511D02*
X102020000Y-109814511D01*
X112700000Y-113015000D02*
X112700000Y-112508714D01*
X112700000Y-112508714D02*
X112070806Y-111879520D01*
X112070806Y-111879520D02*
X110294683Y-111879520D01*
X110294683Y-111879520D02*
X109374203Y-112800000D01*
X109374203Y-112800000D02*
X102331980Y-112800000D01*
X102331980Y-112800000D02*
X100870480Y-111338500D01*
X100870480Y-111338500D02*
X100870480Y-109933400D01*
X100870480Y-109933400D02*
X101418391Y-109385489D01*
X101418391Y-109385489D02*
X102020000Y-109385489D01*
D25*
X111700000Y-113015000D02*
X111663011Y-112978011D01*
X111663011Y-112978011D02*
X111663011Y-112489591D01*
X111663011Y-112489591D02*
X111600409Y-112426989D01*
X111600409Y-112426989D02*
X110799591Y-112426989D01*
X110799591Y-112426989D02*
X109953100Y-113273480D01*
X109953100Y-113273480D02*
X101590060Y-113273480D01*
X101590060Y-113273480D02*
X100269540Y-111952960D01*
X100269540Y-111952960D02*
X100269540Y-109097040D01*
X100716580Y-108650000D02*
X101700000Y-108650000D01*
X100269540Y-109097040D02*
X100716580Y-108650000D01*
D26*
X118200000Y-113015000D02*
X118200000Y-112602499D01*
X109057202Y-111079520D02*
X108236722Y-111900000D01*
X118200000Y-112602499D02*
X118260000Y-112542499D01*
X118260000Y-112542499D02*
X118260000Y-112478702D01*
X103450000Y-111900000D02*
X102700000Y-111150000D01*
X102700000Y-111150000D02*
X102700000Y-109631298D01*
X118260000Y-112478702D02*
X116860818Y-111079520D01*
X116860818Y-111079520D02*
X109057202Y-111079520D01*
X108236722Y-111900000D02*
X103450000Y-111900000D01*
X102700000Y-109631298D02*
X104145809Y-108185489D01*
X104145809Y-108185489D02*
X105100000Y-108185489D01*
X118700000Y-113015000D02*
X118700000Y-112602499D01*
X117018702Y-110700000D02*
X108900000Y-110700000D01*
X118700000Y-112602499D02*
X118640000Y-112542499D01*
X118640000Y-112542499D02*
X118640000Y-112321298D01*
X118640000Y-112321298D02*
X117018702Y-110700000D01*
X108900000Y-110700000D02*
X108079520Y-111520480D01*
X104254191Y-108614511D02*
X105100000Y-108614511D01*
X108079520Y-111520480D02*
X103607202Y-111520480D01*
X103607202Y-111520480D02*
X103079520Y-110992798D01*
X103079520Y-110992798D02*
X103079520Y-109789182D01*
X103079520Y-109789182D02*
X104254191Y-108614511D01*
X120200000Y-113015000D02*
X120200000Y-112602499D01*
X107536308Y-109794990D02*
X106681298Y-110650000D01*
X120200000Y-112602499D02*
X120140000Y-112542499D01*
X104140000Y-110571298D02*
X104140000Y-110093711D01*
X120140000Y-112542499D02*
X120140000Y-111821298D01*
X120140000Y-111821298D02*
X118113692Y-109794990D01*
X118113692Y-109794990D02*
X107536308Y-109794990D01*
X106681298Y-110650000D02*
X104218702Y-110650000D01*
X104218702Y-110650000D02*
X104140000Y-110571298D01*
X104140000Y-110093711D02*
X104419200Y-109814511D01*
X104419200Y-109814511D02*
X105100000Y-109814511D01*
X119700000Y-113015000D02*
X119700000Y-112602499D01*
X119700000Y-112602499D02*
X119760000Y-112542499D01*
X119760000Y-111978702D02*
X117955808Y-110174510D01*
X104311500Y-109385489D02*
X105100000Y-109385489D01*
X119760000Y-112542499D02*
X119760000Y-111978702D01*
X117955808Y-110174510D02*
X107694192Y-110174510D01*
X103760480Y-109936509D02*
X104311500Y-109385489D01*
X107694192Y-110174510D02*
X106839182Y-111029520D01*
X106839182Y-111029520D02*
X104060818Y-111029520D01*
X104060818Y-111029520D02*
X103760480Y-110729182D01*
X103760480Y-110729182D02*
X103760480Y-109936509D01*
X101469677Y-104200000D02*
X101435806Y-104166129D01*
X112200000Y-112617986D02*
X112170483Y-112588469D01*
X102020000Y-104200000D02*
X101469677Y-104200000D01*
X102020000Y-110200000D02*
X102020000Y-110220000D01*
X102020000Y-91000000D02*
X101350206Y-91000000D01*
D27*
X119200000Y-113015000D02*
X119200000Y-113785000D01*
D26*
X101469677Y-98600000D02*
X101435806Y-98633871D01*
X102020000Y-107800000D02*
X101477397Y-107800000D01*
X106700000Y-105900000D02*
X106400000Y-105900000D01*
X101200000Y-106150000D02*
X100700000Y-106150000D01*
X106600000Y-103800000D02*
X106700000Y-103900000D01*
X100966129Y-98633871D02*
X100950000Y-98650000D01*
X106200000Y-96899880D02*
X106200000Y-97150000D01*
X101407690Y-95861537D02*
X100988463Y-95861537D01*
X101435806Y-102166129D02*
X100966129Y-102166129D01*
X101500000Y-102200000D02*
X101450000Y-102150000D01*
X101469227Y-95800000D02*
X101407690Y-95861537D01*
X100988463Y-95861537D02*
X100950000Y-95900000D01*
X105100000Y-99800000D02*
X106600000Y-99800000D01*
X106000000Y-98600000D02*
X106200000Y-98400000D01*
X102020000Y-100200000D02*
X101500579Y-100200000D01*
X101435806Y-102164194D02*
X101435806Y-102166129D01*
X102020000Y-97400000D02*
X101450000Y-97400000D01*
X102020000Y-110220000D02*
X102200000Y-110400000D01*
X100996694Y-100353306D02*
X100950000Y-100400000D01*
X119200000Y-113015000D02*
X119200000Y-112556896D01*
X105100000Y-96200000D02*
X105500120Y-96200000D01*
X105100000Y-109000000D02*
X106100000Y-109000000D01*
X105100000Y-105800000D02*
X106600000Y-105800000D01*
X101500579Y-100200000D02*
X101347273Y-100353306D01*
X106600000Y-101800000D02*
X106700000Y-101900000D01*
X102020000Y-95800000D02*
X101469227Y-95800000D01*
X106100000Y-109000000D02*
X106200000Y-108900000D01*
X105100000Y-107800000D02*
X105600000Y-107800000D01*
X101970000Y-106150000D02*
X101200000Y-106150000D01*
X102020000Y-98600000D02*
X101469677Y-98600000D01*
X105500120Y-110200000D02*
X105100000Y-110200000D01*
X100966129Y-102166129D02*
X100950000Y-102150000D01*
X102020000Y-106200000D02*
X101970000Y-106150000D01*
X101350206Y-91000000D02*
X101270484Y-90920278D01*
X101249704Y-107699704D02*
X100700000Y-107150000D01*
X119200000Y-112556896D02*
X119200000Y-112400000D01*
X101435806Y-98633871D02*
X100966129Y-98633871D01*
X101450000Y-97400000D02*
X100950000Y-97400000D01*
X102020000Y-109000000D02*
X101079016Y-109000000D01*
X101435806Y-104166129D02*
X100966129Y-104166129D01*
X101450000Y-102150000D02*
X101435806Y-102164194D01*
X105100000Y-98600000D02*
X106000000Y-98600000D01*
X106200000Y-109400000D02*
X106200000Y-109500120D01*
X101347273Y-100353306D02*
X100996694Y-100353306D01*
X105600000Y-107800000D02*
X106200000Y-108400000D01*
X119200000Y-112400000D02*
X119175011Y-112400000D01*
X105100000Y-97400000D02*
X106200000Y-97400000D01*
X112200000Y-113015000D02*
X112200000Y-112617986D01*
X106200000Y-109500120D02*
X105500120Y-110200000D01*
X101477397Y-107800000D02*
X101377101Y-107699704D01*
X100966129Y-104166129D02*
X100950000Y-104150000D01*
X105100000Y-103800000D02*
X106600000Y-103800000D01*
X106600000Y-105800000D02*
X106700000Y-105900000D01*
X112200000Y-113015000D02*
X112200000Y-112900000D01*
X101377101Y-107699704D02*
X101249704Y-107699704D01*
X106600000Y-99800000D02*
X106700000Y-99900000D01*
X101079016Y-109000000D02*
X100918000Y-109161016D01*
X102020000Y-102200000D02*
X101500000Y-102200000D01*
X106400000Y-105900000D02*
X106300000Y-105800000D01*
X105500120Y-96200000D02*
X106200000Y-96899880D01*
X119200000Y-113015000D02*
X119200000Y-112900000D01*
X105100000Y-101800000D02*
X106600000Y-101800000D01*
D27*
X112200000Y-113785000D02*
X112200000Y-113015000D01*
D28*
X116700000Y-115200000D02*
X116700000Y-112825000D01*
X114295000Y-117767500D02*
X115565000Y-116497500D01*
X115565000Y-116335000D02*
X116700000Y-115200000D01*
X115565000Y-116497500D02*
X115565000Y-116335000D01*
X116575000Y-112700000D02*
X116017500Y-112700000D01*
X114295000Y-119037500D02*
X114295000Y-117767500D01*
X116700000Y-112825000D02*
X116575000Y-112700000D01*
D26*
X113318827Y-114500000D02*
X114200000Y-114500000D01*
X116031173Y-114900000D02*
X114600000Y-114900000D01*
X114400000Y-114300000D02*
X114400000Y-113785000D01*
X113025000Y-116497500D02*
X114400000Y-116497500D01*
X114600000Y-114900000D02*
X113318827Y-114900000D01*
X114600000Y-115300000D02*
X116031173Y-115300000D01*
X114400000Y-116497500D02*
X114400000Y-115500000D01*
X114400000Y-113785000D02*
X113200000Y-113785000D01*
X113200000Y-113785000D02*
X113200000Y-113015000D01*
X113118827Y-114700000D02*
G75*
G03*
X113318827Y-114900000I200001J1D01*
G01*
X116031173Y-114900000D02*
G75*
G02*
X116231173Y-115100000I-1J-200001D01*
G01*
X116231173Y-115100000D02*
G75*
G02*
X116031173Y-115300000I-200001J1D01*
G01*
X114600000Y-115300000D02*
G75*
G03*
X114400000Y-115500000I1J-200001D01*
G01*
X113318827Y-114500000D02*
G75*
G03*
X113118827Y-114700000I1J-200001D01*
G01*
X114400000Y-114300000D02*
G75*
G02*
X114200000Y-114500000I-200001J1D01*
G01*
X119700000Y-113785000D02*
X119700000Y-113015000D01*
X120439511Y-117562011D02*
X120134034Y-117562011D01*
X121915000Y-119037500D02*
X120439511Y-117562011D01*
X120134034Y-117562011D02*
X119580489Y-117008466D01*
X119580489Y-114317012D02*
X119700000Y-114197501D01*
X119700000Y-114197501D02*
X119700000Y-113785000D01*
X119580489Y-117008466D02*
X119580489Y-114317012D01*
X113500000Y-120100000D02*
X113000000Y-119600000D01*
X111960489Y-117360489D02*
X111960489Y-115071491D01*
X111960489Y-115071491D02*
X112700000Y-114331980D01*
X116835000Y-119037500D02*
X116737500Y-119037500D01*
X115675000Y-120100000D02*
X113500000Y-120100000D01*
X116737500Y-119037500D02*
X115675000Y-120100000D01*
X113000000Y-119600000D02*
X113000000Y-118400000D01*
X112700000Y-113785000D02*
X112700000Y-113015000D01*
X113000000Y-118400000D02*
X111960489Y-117360489D01*
X112700000Y-114331980D02*
X112700000Y-113785000D01*
X119380420Y-117630489D02*
X119369511Y-117630489D01*
X119169511Y-117430489D02*
X119169511Y-116344023D01*
X119169511Y-114667012D02*
X118700000Y-114197501D01*
X119169511Y-118832011D02*
X119169511Y-118230489D01*
X119369511Y-118030489D02*
X119380420Y-118030489D01*
X119169511Y-116344023D02*
X119169511Y-114667012D01*
X118700000Y-114197501D02*
X118700000Y-113785000D01*
X119375000Y-119037500D02*
X119169511Y-118832011D01*
X118700000Y-113785000D02*
X118700000Y-113015000D01*
X119380420Y-117630489D02*
G75*
G02*
X119580420Y-117830489I-1J-200001D01*
G01*
X119369511Y-118030489D02*
G75*
G03*
X119169511Y-118230489I1J-200001D01*
G01*
X119580420Y-117830489D02*
G75*
G02*
X119380420Y-118030489I-200001J1D01*
G01*
X119169511Y-117430489D02*
G75*
G03*
X119369511Y-117630489I200001J1D01*
G01*
X111700000Y-114276120D02*
X111579520Y-114396600D01*
X111700000Y-113015000D02*
X111700000Y-113140000D01*
X111700000Y-113785000D02*
X111700000Y-113015000D01*
X111579520Y-114396600D02*
X111579520Y-118702980D01*
X111579520Y-118702980D02*
X111500000Y-118782500D01*
X111500000Y-118782500D02*
X111755000Y-119037500D01*
X111700000Y-113140000D02*
X111640000Y-113200000D01*
X111700000Y-113785000D02*
X111700000Y-114276120D01*
X118789991Y-115139991D02*
X118200000Y-114550000D01*
X118200000Y-114550000D02*
X118200000Y-113785000D01*
X118200000Y-113785000D02*
X118200000Y-113015000D01*
X117192962Y-115394520D02*
X118789991Y-115394520D01*
X116593741Y-115993741D02*
X117192962Y-115394520D01*
X118105000Y-116497500D02*
X117097500Y-116497500D01*
X117097500Y-116497500D02*
X116593741Y-115993741D01*
X118789991Y-115394520D02*
X118789991Y-115139991D01*
X111200000Y-115782500D02*
X111200000Y-115100000D01*
X110485000Y-116497500D02*
X111200000Y-115782500D01*
D25*
X111200000Y-113015000D02*
X111200000Y-113785000D01*
D26*
X110074856Y-114500000D02*
X111000000Y-114500000D01*
X111000000Y-114900000D02*
X110074856Y-114900000D01*
X111200000Y-114300000D02*
X111200000Y-114250000D01*
X111200000Y-114250000D02*
X111200000Y-113785000D01*
X111200000Y-114300000D02*
G75*
G02*
X111000000Y-114500000I-200001J1D01*
G01*
X110074856Y-114500000D02*
G75*
G03*
X109874856Y-114700000I1J-200001D01*
G01*
X109874856Y-114700000D02*
G75*
G03*
X110074856Y-114900000I200001J1D01*
G01*
X111000000Y-114900000D02*
G75*
G02*
X111200000Y-115100000I-1J-200001D01*
G01*
D24*
X108690000Y-106400000D02*
X108090000Y-107000000D01*
X108090000Y-107000000D02*
X105100000Y-107000000D01*
X110250000Y-91400000D02*
X105100000Y-91400000D01*
D29*
X119200000Y-94400000D02*
X115710000Y-94400000D01*
X122175000Y-94400000D02*
X119200000Y-94400000D01*
X122175000Y-91400000D02*
X119200000Y-91400000D01*
X115710000Y-91400000D02*
X119200000Y-91400000D01*
D24*
X114040000Y-92050000D02*
X114690000Y-91400000D01*
X112150000Y-92050000D02*
X114040000Y-92050000D01*
D26*
X120200000Y-114750000D02*
X120200000Y-114700000D01*
X120200000Y-116052500D02*
X120200000Y-115200000D01*
X120200000Y-114700000D02*
X121882499Y-114700000D01*
X120150000Y-114750000D02*
X120200000Y-114750000D01*
X120645000Y-116497500D02*
X120200000Y-116052500D01*
X121882499Y-114300000D02*
X120400000Y-114300000D01*
X120200000Y-113785000D02*
X120200000Y-113015000D01*
X120200000Y-114100000D02*
X120200000Y-113785000D01*
X120100000Y-115100000D02*
X120100000Y-114800000D01*
X122082499Y-114500000D02*
G75*
G02*
X121882499Y-114700000I-200001J1D01*
G01*
X121882499Y-114300000D02*
G75*
G02*
X122082499Y-114500000I-1J-200001D01*
G01*
X120150000Y-115150000D02*
G75*
G02*
X120200000Y-115200000I-1J-50001D01*
G01*
X120150000Y-114750000D02*
G75*
G03*
X120100000Y-114800000I1J-50001D01*
G01*
X120200000Y-114100000D02*
G75*
G03*
X120400000Y-114300000I200001J1D01*
G01*
X120100000Y-115100000D02*
G75*
G03*
X120150000Y-115150000I50001J1D01*
G01*
D25*
X102020000Y-93000000D02*
X102020000Y-92600000D01*
D30*
X109570000Y-127770000D02*
X99200000Y-117400000D01*
X121925000Y-88400000D02*
X123950000Y-90425000D01*
X112150000Y-88450000D02*
X112150000Y-90750000D01*
X112200000Y-88400000D02*
X121925000Y-88400000D01*
X119867989Y-128067989D02*
X109867989Y-128067989D01*
X109867989Y-128067989D02*
X109570000Y-127770000D01*
X99200000Y-95300000D02*
X99406980Y-95093020D01*
X112200000Y-88400000D02*
X102168440Y-88400000D01*
D28*
X102020000Y-93400000D02*
X101100000Y-93400000D01*
D30*
X102168440Y-88400000D02*
X99200000Y-91368440D01*
X99200000Y-117400000D02*
X99200000Y-95300000D01*
X123950000Y-90425000D02*
X123950000Y-94362500D01*
X109570000Y-129447500D02*
X109570000Y-127770000D01*
X99406980Y-95093020D02*
X100400000Y-94100000D01*
X120290000Y-129447500D02*
X120290000Y-128490000D01*
X100400000Y-94100000D02*
X100900000Y-93600000D01*
X112200000Y-88400000D02*
X112150000Y-88450000D01*
D25*
X101100000Y-93400000D02*
X100900000Y-93600000D01*
D30*
X120290000Y-128490000D02*
X119867989Y-128067989D01*
D28*
X102020000Y-93800000D02*
X101100000Y-93800000D01*
D25*
X101100000Y-93800000D02*
X100900000Y-93600000D01*
D24*
X102020000Y-95000000D02*
X101300000Y-95000000D01*
D30*
X99200000Y-91368440D02*
X99200000Y-95300000D01*
D24*
X101300000Y-95000000D02*
X100400000Y-94100000D01*
D25*
X106100000Y-93000000D02*
X106200000Y-92900000D01*
D30*
X106200000Y-94400000D02*
X106200000Y-93400000D01*
D24*
X105100000Y-93000000D02*
X106100000Y-93000000D01*
D30*
X124200000Y-100400000D02*
X111200000Y-100400000D01*
D25*
X106000000Y-94200000D02*
X106200000Y-94400000D01*
D24*
X105100000Y-95000000D02*
X105800000Y-95000000D01*
D25*
X105800000Y-95000000D02*
X106200000Y-95400000D01*
D24*
X105100000Y-93800000D02*
X105800000Y-93800000D01*
D25*
X106000000Y-94600000D02*
X106200000Y-94400000D01*
X105800000Y-93800000D02*
X106200000Y-93400000D01*
D30*
X106200000Y-93400000D02*
X106200000Y-92900000D01*
X111200000Y-100400000D02*
X106200000Y-95400000D01*
X106200000Y-95400000D02*
X106200000Y-94400000D01*
D24*
X105100000Y-94200000D02*
X106000000Y-94200000D01*
X105100000Y-94600000D02*
X106000000Y-94600000D01*
X105100000Y-93400000D02*
X106200000Y-93400000D01*
X105200000Y-89400000D02*
X111200000Y-89400000D01*
X105100000Y-106200000D02*
X104623000Y-106200000D01*
X104623000Y-106200000D02*
X104200000Y-105777000D01*
X111200000Y-89400000D02*
X111200000Y-94400000D01*
X104200000Y-105777000D02*
X104200000Y-90400000D01*
X104200000Y-90400000D02*
X105200000Y-89400000D01*
X111200000Y-94400000D02*
X114690000Y-94400000D01*
X114200000Y-94400000D02*
X114690000Y-94400000D01*
D31*
X100907160Y-114110861D02*
X100925456Y-114134705D01*
X100948715Y-114157964D01*
X101068216Y-114249660D01*
X101096703Y-114266106D01*
X101131727Y-114280613D01*
X101235862Y-114323748D01*
X101267635Y-114332262D01*
X101416974Y-114351923D01*
X101449866Y-114351923D01*
X101479664Y-114348000D01*
X109243132Y-114348000D01*
X109230113Y-114379431D01*
X109203652Y-114437450D01*
X109194026Y-114468904D01*
X109187014Y-114510736D01*
X109176033Y-114551715D01*
X109171739Y-114584328D01*
X109171739Y-114648328D01*
X109171547Y-114653763D01*
X109169954Y-114670363D01*
X109169456Y-114686837D01*
X109169920Y-114700000D01*
X109169456Y-114713163D01*
X109169954Y-114729637D01*
X109171547Y-114746237D01*
X109171739Y-114751672D01*
X109171739Y-114815672D01*
X109176033Y-114848285D01*
X109187014Y-114889264D01*
X109194026Y-114931096D01*
X109203652Y-114962550D01*
X109230113Y-115020569D01*
X109284749Y-115152471D01*
X109301195Y-115180957D01*
X109319451Y-115204749D01*
X109334446Y-115230720D01*
X109354470Y-115256815D01*
X109414269Y-115316613D01*
X109403959Y-115325233D01*
X109282268Y-115453693D01*
X109264787Y-115477061D01*
X109175912Y-115630071D01*
X109164275Y-115656833D01*
X109112984Y-115826184D01*
X109108074Y-115851506D01*
X109100999Y-115930777D01*
X109100500Y-115941978D01*
X109100500Y-117039887D01*
X109101348Y-117054478D01*
X109116839Y-117187349D01*
X109123552Y-117215749D01*
X109183927Y-117382079D01*
X109196994Y-117408173D01*
X109294014Y-117556153D01*
X109312733Y-117578541D01*
X109441193Y-117700232D01*
X109464561Y-117717713D01*
X109617571Y-117806588D01*
X109644333Y-117818225D01*
X109813684Y-117869516D01*
X109839006Y-117874426D01*
X109918277Y-117881501D01*
X109929478Y-117882000D01*
X110880020Y-117882000D01*
X110880020Y-117963775D01*
X110823064Y-118007478D01*
X110806573Y-118022641D01*
X110655390Y-118188789D01*
X110641847Y-118206633D01*
X110522476Y-118396927D01*
X110512306Y-118416887D01*
X110428520Y-118625312D01*
X110422045Y-118646757D01*
X110376492Y-118866726D01*
X110373917Y-118888978D01*
X110368036Y-119113537D01*
X110369443Y-119135895D01*
X110403422Y-119357946D01*
X110408765Y-119379700D01*
X110481528Y-119592225D01*
X110490640Y-119612691D01*
X110528794Y-119681240D01*
X110379478Y-119679285D01*
X110360838Y-119680425D01*
X110103020Y-119715513D01*
X110084753Y-119719396D01*
X109834953Y-119792206D01*
X109817460Y-119798746D01*
X109581166Y-119907679D01*
X109564832Y-119916733D01*
X109347234Y-120059396D01*
X109332418Y-120070765D01*
X109138298Y-120244024D01*
X109125325Y-120257458D01*
X108958946Y-120457507D01*
X108948101Y-120472711D01*
X108904445Y-120544653D01*
X108774977Y-120503210D01*
X108756818Y-120498850D01*
X108498910Y-120456847D01*
X108480306Y-120455220D01*
X108219021Y-120451799D01*
X108200379Y-120452939D01*
X107941460Y-120488177D01*
X107923194Y-120492060D01*
X107672326Y-120565181D01*
X107654833Y-120571721D01*
X107417530Y-120681119D01*
X107401196Y-120690173D01*
X107203068Y-120820071D01*
X107157067Y-120874148D01*
X107147604Y-120944512D01*
X107177685Y-121008821D01*
X107183058Y-121014538D01*
X108506020Y-122337500D01*
X108325000Y-122518520D01*
X107002555Y-121196075D01*
X106940243Y-121162049D01*
X106869428Y-121167114D01*
X106816587Y-121204600D01*
X106792841Y-121233151D01*
X106781995Y-121248356D01*
X106646436Y-121471750D01*
X106637958Y-121488389D01*
X106536908Y-121729366D01*
X106530982Y-121747077D01*
X106466661Y-122000343D01*
X106463418Y-122018734D01*
X106437238Y-122278726D01*
X106436749Y-122297395D01*
X106449286Y-122558401D01*
X106451562Y-122576938D01*
X106502541Y-122833223D01*
X106507532Y-122851218D01*
X106595831Y-123097154D01*
X106603427Y-123114216D01*
X106701893Y-123297469D01*
X100334500Y-116930076D01*
X100334500Y-113538202D01*
X100907160Y-114110861D01*
G04 #@! TA.AperFunction,Conductor*
G36*
X100907160Y-114110861D02*
G01*
X100925456Y-114134705D01*
X100948715Y-114157964D01*
X101068216Y-114249660D01*
X101096703Y-114266106D01*
X101131727Y-114280613D01*
X101235862Y-114323748D01*
X101267635Y-114332262D01*
X101416974Y-114351923D01*
X101449866Y-114351923D01*
X101479664Y-114348000D01*
X109243132Y-114348000D01*
X109230113Y-114379431D01*
X109203652Y-114437450D01*
X109194026Y-114468904D01*
X109187014Y-114510736D01*
X109176033Y-114551715D01*
X109171739Y-114584328D01*
X109171739Y-114648328D01*
X109171547Y-114653763D01*
X109169954Y-114670363D01*
X109169456Y-114686837D01*
X109169920Y-114700000D01*
X109169456Y-114713163D01*
X109169954Y-114729637D01*
X109171547Y-114746237D01*
X109171739Y-114751672D01*
X109171739Y-114815672D01*
X109176033Y-114848285D01*
X109187014Y-114889264D01*
X109194026Y-114931096D01*
X109203652Y-114962550D01*
X109230113Y-115020569D01*
X109284749Y-115152471D01*
X109301195Y-115180957D01*
X109319451Y-115204749D01*
X109334446Y-115230720D01*
X109354470Y-115256815D01*
X109414269Y-115316613D01*
X109403959Y-115325233D01*
X109282268Y-115453693D01*
X109264787Y-115477061D01*
X109175912Y-115630071D01*
X109164275Y-115656833D01*
X109112984Y-115826184D01*
X109108074Y-115851506D01*
X109100999Y-115930777D01*
X109100500Y-115941978D01*
X109100500Y-117039887D01*
X109101348Y-117054478D01*
X109116839Y-117187349D01*
X109123552Y-117215749D01*
X109183927Y-117382079D01*
X109196994Y-117408173D01*
X109294014Y-117556153D01*
X109312733Y-117578541D01*
X109441193Y-117700232D01*
X109464561Y-117717713D01*
X109617571Y-117806588D01*
X109644333Y-117818225D01*
X109813684Y-117869516D01*
X109839006Y-117874426D01*
X109918277Y-117881501D01*
X109929478Y-117882000D01*
X110880020Y-117882000D01*
X110880020Y-117963775D01*
X110823064Y-118007478D01*
X110806573Y-118022641D01*
X110655390Y-118188789D01*
X110641847Y-118206633D01*
X110522476Y-118396927D01*
X110512306Y-118416887D01*
X110428520Y-118625312D01*
X110422045Y-118646757D01*
X110376492Y-118866726D01*
X110373917Y-118888978D01*
X110368036Y-119113537D01*
X110369443Y-119135895D01*
X110403422Y-119357946D01*
X110408765Y-119379700D01*
X110481528Y-119592225D01*
X110490640Y-119612691D01*
X110528794Y-119681240D01*
X110379478Y-119679285D01*
X110360838Y-119680425D01*
X110103020Y-119715513D01*
X110084753Y-119719396D01*
X109834953Y-119792206D01*
X109817460Y-119798746D01*
X109581166Y-119907679D01*
X109564832Y-119916733D01*
X109347234Y-120059396D01*
X109332418Y-120070765D01*
X109138298Y-120244024D01*
X109125325Y-120257458D01*
X108958946Y-120457507D01*
X108948101Y-120472711D01*
X108904445Y-120544653D01*
X108774977Y-120503210D01*
X108756818Y-120498850D01*
X108498910Y-120456847D01*
X108480306Y-120455220D01*
X108219021Y-120451799D01*
X108200379Y-120452939D01*
X107941460Y-120488177D01*
X107923194Y-120492060D01*
X107672326Y-120565181D01*
X107654833Y-120571721D01*
X107417530Y-120681119D01*
X107401196Y-120690173D01*
X107203068Y-120820071D01*
X107157067Y-120874148D01*
X107147604Y-120944512D01*
X107177685Y-121008821D01*
X107183058Y-121014538D01*
X108506020Y-122337500D01*
X108325000Y-122518520D01*
X107002555Y-121196075D01*
X106940243Y-121162049D01*
X106869428Y-121167114D01*
X106816587Y-121204600D01*
X106792841Y-121233151D01*
X106781995Y-121248356D01*
X106646436Y-121471750D01*
X106637958Y-121488389D01*
X106536908Y-121729366D01*
X106530982Y-121747077D01*
X106466661Y-122000343D01*
X106463418Y-122018734D01*
X106437238Y-122278726D01*
X106436749Y-122297395D01*
X106449286Y-122558401D01*
X106451562Y-122576938D01*
X106502541Y-122833223D01*
X106507532Y-122851218D01*
X106595831Y-123097154D01*
X106603427Y-123114216D01*
X106701893Y-123297469D01*
X100334500Y-116930076D01*
X100334500Y-113538202D01*
X100907160Y-114110861D01*
G37*
G04 #@! TD.AperFunction*
X108127200Y-108429631D02*
X108153868Y-108446555D01*
X108300954Y-108515768D01*
X108330992Y-108525528D01*
X108471169Y-108552268D01*
X108494779Y-108554500D01*
X108587319Y-108554500D01*
X108676708Y-108670994D01*
X108699964Y-108694251D01*
X108709167Y-108701313D01*
X108716229Y-108710516D01*
X108739486Y-108733772D01*
X108866546Y-108831269D01*
X108895033Y-108847716D01*
X108947585Y-108869483D01*
X109042995Y-108909004D01*
X109074768Y-108917518D01*
X109233554Y-108938422D01*
X109266446Y-108938422D01*
X109296238Y-108934500D01*
X118845761Y-108934500D01*
X124929000Y-115017739D01*
X124929000Y-120657845D01*
X124791159Y-120589869D01*
X124773844Y-120582873D01*
X124524977Y-120503210D01*
X124506818Y-120498850D01*
X124248910Y-120456847D01*
X124230306Y-120455220D01*
X123969021Y-120451799D01*
X123950379Y-120452939D01*
X123691460Y-120488177D01*
X123673194Y-120492060D01*
X123496976Y-120543422D01*
X123479768Y-120513314D01*
X123469325Y-120497831D01*
X123308240Y-120293495D01*
X123295623Y-120279726D01*
X123106105Y-120101445D01*
X123091592Y-120089692D01*
X122933769Y-119980206D01*
X123065730Y-119815491D01*
X123078127Y-119796832D01*
X123185314Y-119599418D01*
X123194211Y-119578859D01*
X123264745Y-119365584D01*
X123269860Y-119343774D01*
X123301511Y-119121379D01*
X123302725Y-119106925D01*
X123304457Y-119040799D01*
X123304001Y-119026299D01*
X123284032Y-118802552D01*
X123280065Y-118780505D01*
X123220790Y-118563831D01*
X123212982Y-118542835D01*
X123116274Y-118340082D01*
X123104870Y-118320800D01*
X122973785Y-118138377D01*
X122959148Y-118121419D01*
X122797831Y-117965092D01*
X122780422Y-117950994D01*
X122593972Y-117825705D01*
X122574341Y-117814914D01*
X122368650Y-117724622D01*
X122347420Y-117717476D01*
X122128991Y-117665035D01*
X122106829Y-117661763D01*
X121882566Y-117648832D01*
X121860175Y-117649536D01*
X121637166Y-117676524D01*
X121615255Y-117681181D01*
X121563764Y-117697022D01*
X121476311Y-117609569D01*
X121639773Y-117466972D01*
X121655278Y-117450804D01*
X121795730Y-117275491D01*
X121808127Y-117256832D01*
X121915314Y-117059418D01*
X121924211Y-117038859D01*
X121994745Y-116825584D01*
X121999860Y-116803774D01*
X122031511Y-116581379D01*
X122032725Y-116566925D01*
X122034457Y-116500799D01*
X122034001Y-116486299D01*
X122014032Y-116262552D01*
X122010065Y-116240505D01*
X121950790Y-116023831D01*
X121942982Y-116002835D01*
X121846274Y-115800082D01*
X121834870Y-115780800D01*
X121703785Y-115598377D01*
X121689148Y-115581419D01*
X121527831Y-115425092D01*
X121510422Y-115410994D01*
X121493317Y-115399500D01*
X121796597Y-115399500D01*
X121852860Y-115404901D01*
X121869335Y-115405400D01*
X121934159Y-115403117D01*
X121998171Y-115403117D01*
X122030784Y-115398823D01*
X122071763Y-115387842D01*
X122113595Y-115380830D01*
X122145049Y-115371204D01*
X122203068Y-115344743D01*
X122334970Y-115290107D01*
X122363456Y-115273661D01*
X122387248Y-115255405D01*
X122413219Y-115240410D01*
X122439314Y-115220386D01*
X122547022Y-115112677D01*
X122602885Y-115056815D01*
X122622910Y-115030718D01*
X122637902Y-115004750D01*
X122656159Y-114980958D01*
X122672606Y-114952471D01*
X122727240Y-114820574D01*
X122753703Y-114762550D01*
X122763329Y-114731097D01*
X122770343Y-114689258D01*
X122781322Y-114648284D01*
X122785616Y-114615672D01*
X122785616Y-114551672D01*
X122785808Y-114546237D01*
X122787401Y-114529637D01*
X122787899Y-114513163D01*
X122787435Y-114500000D01*
X122787899Y-114486837D01*
X122787401Y-114470363D01*
X122785808Y-114453763D01*
X122785616Y-114448328D01*
X122785616Y-114384328D01*
X122781322Y-114351716D01*
X122770343Y-114310742D01*
X122763329Y-114268903D01*
X122753703Y-114237450D01*
X122727240Y-114179426D01*
X122672606Y-114047529D01*
X122656159Y-114019042D01*
X122637902Y-113995250D01*
X122622910Y-113969282D01*
X122602885Y-113943185D01*
X122522997Y-113863298D01*
X122439314Y-113779614D01*
X122413219Y-113759590D01*
X122387248Y-113744595D01*
X122363456Y-113726339D01*
X122334970Y-113709893D01*
X122203068Y-113655257D01*
X122145049Y-113628796D01*
X122113595Y-113619170D01*
X122071763Y-113612158D01*
X122030784Y-113601177D01*
X121998171Y-113596883D01*
X121934159Y-113596883D01*
X121869335Y-113594600D01*
X121852860Y-113595099D01*
X121796597Y-113600500D01*
X120989500Y-113600500D01*
X120989500Y-113510000D01*
X120989179Y-113501011D01*
X120983952Y-113427932D01*
X120979169Y-113401424D01*
X120976220Y-113391381D01*
X120988218Y-113307931D01*
X120989500Y-113290000D01*
X120989500Y-112740000D01*
X120989179Y-112731011D01*
X120983952Y-112657932D01*
X120979169Y-112631423D01*
X120937992Y-112491186D01*
X120923094Y-112458563D01*
X120851286Y-112346829D01*
X120839500Y-112318374D01*
X120839500Y-111867528D01*
X120843421Y-111837744D01*
X120843421Y-111804852D01*
X120838422Y-111766879D01*
X120838422Y-111766873D01*
X120823710Y-111655125D01*
X120815197Y-111623353D01*
X120757405Y-111483830D01*
X120740958Y-111455344D01*
X120732733Y-111444625D01*
X120672343Y-111365923D01*
X120672337Y-111365917D01*
X120649023Y-111335533D01*
X120625765Y-111312275D01*
X120601928Y-111293984D01*
X118641006Y-109333062D01*
X118622715Y-109309225D01*
X118599457Y-109285967D01*
X118569082Y-109262660D01*
X118569067Y-109262646D01*
X118479646Y-109194031D01*
X118451160Y-109177585D01*
X118311637Y-109119793D01*
X118279865Y-109111280D01*
X118173791Y-109097315D01*
X118168117Y-109096568D01*
X118130138Y-109091568D01*
X118097246Y-109091568D01*
X118067455Y-109095490D01*
X107582545Y-109095490D01*
X107552754Y-109091568D01*
X107519862Y-109091568D01*
X107481883Y-109096568D01*
X107370135Y-109111280D01*
X107338363Y-109119793D01*
X107198840Y-109177585D01*
X107170354Y-109194032D01*
X107050543Y-109285967D01*
X107027285Y-109309225D01*
X107008994Y-109333062D01*
X106391555Y-109950500D01*
X106083534Y-109950500D01*
X106088217Y-109917932D01*
X106089500Y-109900000D01*
X106089500Y-109700000D01*
X106089179Y-109691011D01*
X106083952Y-109617932D01*
X106079169Y-109591423D01*
X106078150Y-109587954D01*
X106088218Y-109517931D01*
X106089500Y-109500000D01*
X106089500Y-109300000D01*
X106089179Y-109291011D01*
X106083952Y-109217932D01*
X106079169Y-109191422D01*
X106077814Y-109186808D01*
X106087717Y-109117932D01*
X106089000Y-109100000D01*
X106089000Y-108900000D01*
X106088679Y-108891011D01*
X106083457Y-108818003D01*
X106078674Y-108791492D01*
X106077980Y-108789129D01*
X106088217Y-108717932D01*
X106089500Y-108700000D01*
X106089500Y-108500000D01*
X106089179Y-108491011D01*
X106083952Y-108417932D01*
X106079169Y-108391423D01*
X106078150Y-108387954D01*
X106085836Y-108334500D01*
X108012207Y-108334500D01*
X108127200Y-108429631D01*
G04 #@! TA.AperFunction,Conductor*
G36*
X108127200Y-108429631D02*
G01*
X108153868Y-108446555D01*
X108300954Y-108515768D01*
X108330992Y-108525528D01*
X108471169Y-108552268D01*
X108494779Y-108554500D01*
X108587319Y-108554500D01*
X108676708Y-108670994D01*
X108699964Y-108694251D01*
X108709167Y-108701313D01*
X108716229Y-108710516D01*
X108739486Y-108733772D01*
X108866546Y-108831269D01*
X108895033Y-108847716D01*
X108947585Y-108869483D01*
X109042995Y-108909004D01*
X109074768Y-108917518D01*
X109233554Y-108938422D01*
X109266446Y-108938422D01*
X109296238Y-108934500D01*
X118845761Y-108934500D01*
X124929000Y-115017739D01*
X124929000Y-120657845D01*
X124791159Y-120589869D01*
X124773844Y-120582873D01*
X124524977Y-120503210D01*
X124506818Y-120498850D01*
X124248910Y-120456847D01*
X124230306Y-120455220D01*
X123969021Y-120451799D01*
X123950379Y-120452939D01*
X123691460Y-120488177D01*
X123673194Y-120492060D01*
X123496976Y-120543422D01*
X123479768Y-120513314D01*
X123469325Y-120497831D01*
X123308240Y-120293495D01*
X123295623Y-120279726D01*
X123106105Y-120101445D01*
X123091592Y-120089692D01*
X122933769Y-119980206D01*
X123065730Y-119815491D01*
X123078127Y-119796832D01*
X123185314Y-119599418D01*
X123194211Y-119578859D01*
X123264745Y-119365584D01*
X123269860Y-119343774D01*
X123301511Y-119121379D01*
X123302725Y-119106925D01*
X123304457Y-119040799D01*
X123304001Y-119026299D01*
X123284032Y-118802552D01*
X123280065Y-118780505D01*
X123220790Y-118563831D01*
X123212982Y-118542835D01*
X123116274Y-118340082D01*
X123104870Y-118320800D01*
X122973785Y-118138377D01*
X122959148Y-118121419D01*
X122797831Y-117965092D01*
X122780422Y-117950994D01*
X122593972Y-117825705D01*
X122574341Y-117814914D01*
X122368650Y-117724622D01*
X122347420Y-117717476D01*
X122128991Y-117665035D01*
X122106829Y-117661763D01*
X121882566Y-117648832D01*
X121860175Y-117649536D01*
X121637166Y-117676524D01*
X121615255Y-117681181D01*
X121563764Y-117697022D01*
X121476311Y-117609569D01*
X121639773Y-117466972D01*
X121655278Y-117450804D01*
X121795730Y-117275491D01*
X121808127Y-117256832D01*
X121915314Y-117059418D01*
X121924211Y-117038859D01*
X121994745Y-116825584D01*
X121999860Y-116803774D01*
X122031511Y-116581379D01*
X122032725Y-116566925D01*
X122034457Y-116500799D01*
X122034001Y-116486299D01*
X122014032Y-116262552D01*
X122010065Y-116240505D01*
X121950790Y-116023831D01*
X121942982Y-116002835D01*
X121846274Y-115800082D01*
X121834870Y-115780800D01*
X121703785Y-115598377D01*
X121689148Y-115581419D01*
X121527831Y-115425092D01*
X121510422Y-115410994D01*
X121493317Y-115399500D01*
X121796597Y-115399500D01*
X121852860Y-115404901D01*
X121869335Y-115405400D01*
X121934159Y-115403117D01*
X121998171Y-115403117D01*
X122030784Y-115398823D01*
X122071763Y-115387842D01*
X122113595Y-115380830D01*
X122145049Y-115371204D01*
X122203068Y-115344743D01*
X122334970Y-115290107D01*
X122363456Y-115273661D01*
X122387248Y-115255405D01*
X122413219Y-115240410D01*
X122439314Y-115220386D01*
X122547022Y-115112677D01*
X122602885Y-115056815D01*
X122622910Y-115030718D01*
X122637902Y-115004750D01*
X122656159Y-114980958D01*
X122672606Y-114952471D01*
X122727240Y-114820574D01*
X122753703Y-114762550D01*
X122763329Y-114731097D01*
X122770343Y-114689258D01*
X122781322Y-114648284D01*
X122785616Y-114615672D01*
X122785616Y-114551672D01*
X122785808Y-114546237D01*
X122787401Y-114529637D01*
X122787899Y-114513163D01*
X122787435Y-114500000D01*
X122787899Y-114486837D01*
X122787401Y-114470363D01*
X122785808Y-114453763D01*
X122785616Y-114448328D01*
X122785616Y-114384328D01*
X122781322Y-114351716D01*
X122770343Y-114310742D01*
X122763329Y-114268903D01*
X122753703Y-114237450D01*
X122727240Y-114179426D01*
X122672606Y-114047529D01*
X122656159Y-114019042D01*
X122637902Y-113995250D01*
X122622910Y-113969282D01*
X122602885Y-113943185D01*
X122522997Y-113863298D01*
X122439314Y-113779614D01*
X122413219Y-113759590D01*
X122387248Y-113744595D01*
X122363456Y-113726339D01*
X122334970Y-113709893D01*
X122203068Y-113655257D01*
X122145049Y-113628796D01*
X122113595Y-113619170D01*
X122071763Y-113612158D01*
X122030784Y-113601177D01*
X121998171Y-113596883D01*
X121934159Y-113596883D01*
X121869335Y-113594600D01*
X121852860Y-113595099D01*
X121796597Y-113600500D01*
X120989500Y-113600500D01*
X120989500Y-113510000D01*
X120989179Y-113501011D01*
X120983952Y-113427932D01*
X120979169Y-113401424D01*
X120976220Y-113391381D01*
X120988218Y-113307931D01*
X120989500Y-113290000D01*
X120989500Y-112740000D01*
X120989179Y-112731011D01*
X120983952Y-112657932D01*
X120979169Y-112631423D01*
X120937992Y-112491186D01*
X120923094Y-112458563D01*
X120851286Y-112346829D01*
X120839500Y-112318374D01*
X120839500Y-111867528D01*
X120843421Y-111837744D01*
X120843421Y-111804852D01*
X120838422Y-111766879D01*
X120838422Y-111766873D01*
X120823710Y-111655125D01*
X120815197Y-111623353D01*
X120757405Y-111483830D01*
X120740958Y-111455344D01*
X120732733Y-111444625D01*
X120672343Y-111365923D01*
X120672337Y-111365917D01*
X120649023Y-111335533D01*
X120625765Y-111312275D01*
X120601928Y-111293984D01*
X118641006Y-109333062D01*
X118622715Y-109309225D01*
X118599457Y-109285967D01*
X118569082Y-109262660D01*
X118569067Y-109262646D01*
X118479646Y-109194031D01*
X118451160Y-109177585D01*
X118311637Y-109119793D01*
X118279865Y-109111280D01*
X118173791Y-109097315D01*
X118168117Y-109096568D01*
X118130138Y-109091568D01*
X118097246Y-109091568D01*
X118067455Y-109095490D01*
X107582545Y-109095490D01*
X107552754Y-109091568D01*
X107519862Y-109091568D01*
X107481883Y-109096568D01*
X107370135Y-109111280D01*
X107338363Y-109119793D01*
X107198840Y-109177585D01*
X107170354Y-109194032D01*
X107050543Y-109285967D01*
X107027285Y-109309225D01*
X107008994Y-109333062D01*
X106391555Y-109950500D01*
X106083534Y-109950500D01*
X106088217Y-109917932D01*
X106089500Y-109900000D01*
X106089500Y-109700000D01*
X106089179Y-109691011D01*
X106083952Y-109617932D01*
X106079169Y-109591423D01*
X106078150Y-109587954D01*
X106088218Y-109517931D01*
X106089500Y-109500000D01*
X106089500Y-109300000D01*
X106089179Y-109291011D01*
X106083952Y-109217932D01*
X106079169Y-109191422D01*
X106077814Y-109186808D01*
X106087717Y-109117932D01*
X106089000Y-109100000D01*
X106089000Y-108900000D01*
X106088679Y-108891011D01*
X106083457Y-108818003D01*
X106078674Y-108791492D01*
X106077980Y-108789129D01*
X106088217Y-108717932D01*
X106089500Y-108700000D01*
X106089500Y-108500000D01*
X106089179Y-108491011D01*
X106083952Y-108417932D01*
X106079169Y-108391423D01*
X106078150Y-108387954D01*
X106085836Y-108334500D01*
X108012207Y-108334500D01*
X108127200Y-108429631D01*
G37*
G04 #@! TD.AperFunction*
X114708722Y-111780363D02*
X114556531Y-111840620D01*
X114528854Y-111855836D01*
X114396430Y-111952047D01*
X114373406Y-111973668D01*
X114269069Y-112099790D01*
X114252146Y-112126457D01*
X114182452Y-112274564D01*
X114172692Y-112304602D01*
X114150223Y-112422390D01*
X114157106Y-112493052D01*
X114201100Y-112548776D01*
X114273991Y-112572000D01*
X115103000Y-112572000D01*
X115103000Y-112909579D01*
X115103994Y-112925371D01*
X115119525Y-113048311D01*
X115127379Y-113078903D01*
X115185500Y-113225699D01*
X115185500Y-113508599D01*
X115205502Y-113576720D01*
X115259158Y-113623213D01*
X115327293Y-113633605D01*
X115375687Y-113627491D01*
X115406278Y-113619637D01*
X115539669Y-113566824D01*
X115621909Y-113605523D01*
X115651947Y-113615283D01*
X115793407Y-113642268D01*
X115817017Y-113644500D01*
X115915500Y-113644500D01*
X115915500Y-114200500D01*
X115099500Y-114200500D01*
X115099500Y-113831237D01*
X115103422Y-113801447D01*
X115103422Y-113768554D01*
X115083710Y-113618827D01*
X115075197Y-113587055D01*
X115017405Y-113447532D01*
X115000958Y-113419046D01*
X114929500Y-113325921D01*
X114929500Y-112954000D01*
X114909498Y-112885879D01*
X114855842Y-112839386D01*
X114803500Y-112828000D01*
X114275112Y-112828000D01*
X114206991Y-112848002D01*
X114160498Y-112901658D01*
X114150105Y-112969791D01*
X114160008Y-113048185D01*
X114167863Y-113078778D01*
X114170524Y-113085500D01*
X113989500Y-113085500D01*
X113989500Y-112740000D01*
X113989179Y-112731011D01*
X113983952Y-112657932D01*
X113979169Y-112631423D01*
X113937992Y-112491186D01*
X113923094Y-112458563D01*
X113898853Y-112420843D01*
X113898422Y-112417572D01*
X113898422Y-112417567D01*
X113883710Y-112305819D01*
X113875197Y-112274047D01*
X113817405Y-112134524D01*
X113800959Y-112106038D01*
X113785664Y-112086105D01*
X113732344Y-112016617D01*
X113732330Y-112016602D01*
X113709023Y-111986227D01*
X113685765Y-111962969D01*
X113661928Y-111944678D01*
X113496270Y-111779020D01*
X114713953Y-111779020D01*
X114708722Y-111780363D01*
G04 #@! TA.AperFunction,Conductor*
G36*
X114708722Y-111780363D02*
G01*
X114556531Y-111840620D01*
X114528854Y-111855836D01*
X114396430Y-111952047D01*
X114373406Y-111973668D01*
X114269069Y-112099790D01*
X114252146Y-112126457D01*
X114182452Y-112274564D01*
X114172692Y-112304602D01*
X114150223Y-112422390D01*
X114157106Y-112493052D01*
X114201100Y-112548776D01*
X114273991Y-112572000D01*
X115103000Y-112572000D01*
X115103000Y-112909579D01*
X115103994Y-112925371D01*
X115119525Y-113048311D01*
X115127379Y-113078903D01*
X115185500Y-113225699D01*
X115185500Y-113508599D01*
X115205502Y-113576720D01*
X115259158Y-113623213D01*
X115327293Y-113633605D01*
X115375687Y-113627491D01*
X115406278Y-113619637D01*
X115539669Y-113566824D01*
X115621909Y-113605523D01*
X115651947Y-113615283D01*
X115793407Y-113642268D01*
X115817017Y-113644500D01*
X115915500Y-113644500D01*
X115915500Y-114200500D01*
X115099500Y-114200500D01*
X115099500Y-113831237D01*
X115103422Y-113801447D01*
X115103422Y-113768554D01*
X115083710Y-113618827D01*
X115075197Y-113587055D01*
X115017405Y-113447532D01*
X115000958Y-113419046D01*
X114929500Y-113325921D01*
X114929500Y-112954000D01*
X114909498Y-112885879D01*
X114855842Y-112839386D01*
X114803500Y-112828000D01*
X114275112Y-112828000D01*
X114206991Y-112848002D01*
X114160498Y-112901658D01*
X114150105Y-112969791D01*
X114160008Y-113048185D01*
X114167863Y-113078778D01*
X114170524Y-113085500D01*
X113989500Y-113085500D01*
X113989500Y-112740000D01*
X113989179Y-112731011D01*
X113983952Y-112657932D01*
X113979169Y-112631423D01*
X113937992Y-112491186D01*
X113923094Y-112458563D01*
X113898853Y-112420843D01*
X113898422Y-112417572D01*
X113898422Y-112417567D01*
X113883710Y-112305819D01*
X113875197Y-112274047D01*
X113817405Y-112134524D01*
X113800959Y-112106038D01*
X113785664Y-112086105D01*
X113732344Y-112016617D01*
X113732330Y-112016602D01*
X113709023Y-111986227D01*
X113685765Y-111962969D01*
X113661928Y-111944678D01*
X113496270Y-111779020D01*
X114713953Y-111779020D01*
X114708722Y-111780363D01*
G37*
G04 #@! TD.AperFunction*
X126066000Y-113564487D02*
X119614843Y-107113330D01*
X119596547Y-107089486D01*
X119573288Y-107066228D01*
X119446228Y-106968731D01*
X119417741Y-106952284D01*
X119356452Y-106926898D01*
X119269779Y-106890996D01*
X119238006Y-106882482D01*
X119079220Y-106861578D01*
X119046328Y-106861578D01*
X119016536Y-106865500D01*
X110563320Y-106865500D01*
X110575768Y-106839046D01*
X110585528Y-106809008D01*
X110612268Y-106668831D01*
X110614500Y-106645221D01*
X110614500Y-106175421D01*
X110613506Y-106159629D01*
X110598132Y-106037933D01*
X110590278Y-106007342D01*
X110530437Y-105856200D01*
X110515221Y-105828522D01*
X110419672Y-105697010D01*
X110398052Y-105673987D01*
X110272800Y-105570369D01*
X110246132Y-105553445D01*
X110099046Y-105484232D01*
X110069008Y-105474472D01*
X109928831Y-105447732D01*
X109905221Y-105445500D01*
X109535421Y-105445500D01*
X109519629Y-105446494D01*
X109397933Y-105461868D01*
X109367342Y-105469722D01*
X109216200Y-105529563D01*
X109197374Y-105539913D01*
X109079046Y-105484232D01*
X109049008Y-105474472D01*
X108908831Y-105447732D01*
X108885221Y-105445500D01*
X108515421Y-105445500D01*
X108499629Y-105446494D01*
X108377933Y-105461868D01*
X108347342Y-105469722D01*
X108196200Y-105529563D01*
X108168522Y-105544779D01*
X108037010Y-105640328D01*
X108013987Y-105661948D01*
X107910369Y-105787200D01*
X107893445Y-105813868D01*
X107824232Y-105960954D01*
X107814472Y-105990992D01*
X107787732Y-106131169D01*
X107785500Y-106154779D01*
X107785500Y-106265500D01*
X106089500Y-106265500D01*
X106089500Y-106100000D01*
X106089179Y-106091011D01*
X106083952Y-106017932D01*
X106079169Y-105991422D01*
X106077814Y-105986808D01*
X106087717Y-105917932D01*
X106089000Y-105900000D01*
X106089000Y-105700000D01*
X106088679Y-105691011D01*
X106083457Y-105618003D01*
X106078674Y-105591492D01*
X106077980Y-105589129D01*
X106088217Y-105517932D01*
X106089500Y-105500000D01*
X106089500Y-105300000D01*
X106089179Y-105291011D01*
X106083952Y-105217932D01*
X106079169Y-105191423D01*
X106078150Y-105187954D01*
X106088218Y-105117931D01*
X106089500Y-105100000D01*
X106089500Y-104900000D01*
X106089179Y-104891011D01*
X106083952Y-104817932D01*
X106079169Y-104791423D01*
X106078150Y-104787954D01*
X106088218Y-104717931D01*
X106089500Y-104700000D01*
X106089500Y-104500000D01*
X106089179Y-104491011D01*
X106083952Y-104417932D01*
X106079169Y-104391423D01*
X106078150Y-104387954D01*
X106088218Y-104317931D01*
X106089500Y-104300000D01*
X106089500Y-104100000D01*
X106089179Y-104091011D01*
X106083952Y-104017932D01*
X106079169Y-103991422D01*
X106077814Y-103986808D01*
X106087717Y-103917932D01*
X106089000Y-103900000D01*
X106089000Y-103700000D01*
X106088679Y-103691011D01*
X106083457Y-103618003D01*
X106078674Y-103591492D01*
X106077980Y-103589129D01*
X106088217Y-103517932D01*
X106089500Y-103500000D01*
X106089500Y-103300000D01*
X106089179Y-103291011D01*
X106083952Y-103217932D01*
X106079169Y-103191423D01*
X106078150Y-103187954D01*
X106088218Y-103117931D01*
X106089500Y-103100000D01*
X106089500Y-102900000D01*
X106089179Y-102891011D01*
X106083952Y-102817932D01*
X106079169Y-102791423D01*
X106078150Y-102787954D01*
X106088218Y-102717931D01*
X106089500Y-102700000D01*
X106089500Y-102500000D01*
X106089179Y-102491011D01*
X106083952Y-102417932D01*
X106079169Y-102391423D01*
X106078150Y-102387954D01*
X106088218Y-102317931D01*
X106089500Y-102300000D01*
X106089500Y-102100000D01*
X106089179Y-102091011D01*
X106083952Y-102017932D01*
X106079169Y-101991422D01*
X106077814Y-101986808D01*
X106087717Y-101917932D01*
X106089000Y-101900000D01*
X106089000Y-101700000D01*
X106088679Y-101691011D01*
X106083457Y-101618003D01*
X106078674Y-101591492D01*
X106077980Y-101589129D01*
X106088217Y-101517932D01*
X106089500Y-101500000D01*
X106089500Y-101300000D01*
X106089179Y-101291011D01*
X106083952Y-101217932D01*
X106079169Y-101191423D01*
X106078150Y-101187954D01*
X106088218Y-101117931D01*
X106089500Y-101100000D01*
X106089500Y-100900000D01*
X106089179Y-100891011D01*
X106083952Y-100817932D01*
X106079169Y-100791423D01*
X106078150Y-100787954D01*
X106088218Y-100717931D01*
X106089500Y-100700000D01*
X106089500Y-100500000D01*
X106089179Y-100491011D01*
X106083952Y-100417932D01*
X106079169Y-100391423D01*
X106078150Y-100387954D01*
X106088218Y-100317931D01*
X106089500Y-100300000D01*
X106089500Y-100100000D01*
X106089179Y-100091011D01*
X106083952Y-100017932D01*
X106079169Y-99991422D01*
X106077814Y-99986808D01*
X106087717Y-99917932D01*
X106089000Y-99900000D01*
X106089000Y-99700000D01*
X106088679Y-99691011D01*
X106083457Y-99618003D01*
X106078674Y-99591492D01*
X106077980Y-99589129D01*
X106088217Y-99517932D01*
X106089500Y-99500000D01*
X106089500Y-99300000D01*
X106089179Y-99291011D01*
X106083952Y-99217932D01*
X106079169Y-99191423D01*
X106078150Y-99187954D01*
X106088218Y-99117931D01*
X106089500Y-99100000D01*
X106089500Y-98900000D01*
X106089179Y-98891011D01*
X106083952Y-98817932D01*
X106079169Y-98791422D01*
X106077814Y-98786808D01*
X106087717Y-98717932D01*
X106089000Y-98700000D01*
X106089000Y-98500000D01*
X106088679Y-98491011D01*
X106083457Y-98418003D01*
X106078674Y-98391492D01*
X106077980Y-98389129D01*
X106088217Y-98317932D01*
X106089500Y-98300000D01*
X106089500Y-98100000D01*
X106089179Y-98091011D01*
X106083952Y-98017932D01*
X106079169Y-97991423D01*
X106078150Y-97987954D01*
X106088218Y-97917931D01*
X106089500Y-97900000D01*
X106089500Y-97700000D01*
X106089179Y-97691011D01*
X106083952Y-97617932D01*
X106079169Y-97591422D01*
X106077814Y-97586808D01*
X106087717Y-97517932D01*
X106089000Y-97500000D01*
X106089000Y-97300000D01*
X106088679Y-97291011D01*
X106083457Y-97218003D01*
X106078674Y-97191492D01*
X106077980Y-97189129D01*
X106088217Y-97117932D01*
X106089500Y-97100000D01*
X106089500Y-96900000D01*
X106089275Y-96893700D01*
X110353271Y-101157696D01*
X110377685Y-101188061D01*
X110394891Y-101205631D01*
X110434543Y-101238903D01*
X110442966Y-101246541D01*
X110475190Y-101273010D01*
X110546414Y-101332774D01*
X110555634Y-101339087D01*
X110556218Y-101339567D01*
X110561426Y-101343053D01*
X110566705Y-101346668D01*
X110567381Y-101347040D01*
X110576654Y-101353247D01*
X110658498Y-101397131D01*
X110740039Y-101441959D01*
X110750306Y-101446359D01*
X110750967Y-101446713D01*
X110756816Y-101449148D01*
X110762652Y-101451649D01*
X110763368Y-101451876D01*
X110773679Y-101456169D01*
X110862600Y-101483354D01*
X110951183Y-101511455D01*
X110962113Y-101513778D01*
X110962835Y-101513999D01*
X110969009Y-101515244D01*
X110975238Y-101516568D01*
X110975997Y-101516653D01*
X110986941Y-101518860D01*
X111079419Y-101528253D01*
X111128110Y-101533715D01*
X111139396Y-101534346D01*
X111183729Y-101538849D01*
X111208319Y-101538935D01*
X111255238Y-101534500D01*
X123149442Y-101534500D01*
X123157188Y-101608192D01*
X123162665Y-101633957D01*
X123223261Y-101820455D01*
X123233975Y-101844519D01*
X123332023Y-102014343D01*
X123347506Y-102035653D01*
X123478719Y-102181380D01*
X123498294Y-102199006D01*
X123656939Y-102314268D01*
X123679751Y-102327439D01*
X123858893Y-102407198D01*
X123883945Y-102415337D01*
X123919803Y-102422959D01*
X123990593Y-102417558D01*
X124047226Y-102374741D01*
X124071720Y-102308104D01*
X124072000Y-102299713D01*
X124072000Y-101654000D01*
X124328000Y-101654000D01*
X124328000Y-102299713D01*
X124348002Y-102367834D01*
X124401658Y-102414327D01*
X124471932Y-102424431D01*
X124480197Y-102422959D01*
X124516055Y-102415337D01*
X124541107Y-102407198D01*
X124720249Y-102327439D01*
X124743061Y-102314268D01*
X124901706Y-102199006D01*
X124921281Y-102181380D01*
X125052494Y-102035653D01*
X125067977Y-102014343D01*
X125166025Y-101844519D01*
X125176739Y-101820455D01*
X125218172Y-101692936D01*
X125220199Y-101621968D01*
X125183537Y-101561170D01*
X125119824Y-101529845D01*
X125098339Y-101528000D01*
X124454000Y-101528000D01*
X124385879Y-101548002D01*
X124339386Y-101601658D01*
X124328000Y-101654000D01*
X124072000Y-101654000D01*
X124072000Y-101534500D01*
X124250994Y-101534500D01*
X124263289Y-101533899D01*
X124409152Y-101519597D01*
X124433275Y-101514820D01*
X124599941Y-101464500D01*
X124625000Y-101464500D01*
X124633989Y-101464179D01*
X124707068Y-101458952D01*
X124733577Y-101454169D01*
X124873814Y-101412992D01*
X124906437Y-101398094D01*
X125029392Y-101319075D01*
X125056495Y-101295590D01*
X125076936Y-101272000D01*
X125098339Y-101272000D01*
X125166460Y-101251998D01*
X125212953Y-101198342D01*
X125223057Y-101128068D01*
X125218172Y-101107065D01*
X125207904Y-101075463D01*
X125232314Y-101022012D01*
X125242418Y-100987601D01*
X125263218Y-100842931D01*
X125264500Y-100825000D01*
X125264500Y-100798261D01*
X125313165Y-100641052D01*
X125318110Y-100616962D01*
X125338785Y-100420246D01*
X125338956Y-100395656D01*
X125321029Y-100198669D01*
X125316422Y-100174514D01*
X125264500Y-99998097D01*
X125264500Y-99975000D01*
X125264179Y-99966011D01*
X125258952Y-99892932D01*
X125254169Y-99866423D01*
X125212992Y-99726186D01*
X125198094Y-99693563D01*
X125119075Y-99570608D01*
X125095590Y-99543505D01*
X124985132Y-99447792D01*
X124954961Y-99428402D01*
X124822012Y-99367686D01*
X124787601Y-99357582D01*
X124642931Y-99336782D01*
X124625000Y-99335500D01*
X124596838Y-99335500D01*
X124448817Y-99288545D01*
X124424763Y-99283432D01*
X124271890Y-99266285D01*
X124257845Y-99265500D01*
X111669924Y-99265500D01*
X107334500Y-94930076D01*
X107334500Y-92849006D01*
X107333899Y-92836711D01*
X107319597Y-92690848D01*
X107314820Y-92666725D01*
X107257649Y-92477367D01*
X107248279Y-92454632D01*
X107155418Y-92279985D01*
X107141809Y-92259502D01*
X107039860Y-92134500D01*
X109376240Y-92134500D01*
X109343879Y-92144002D01*
X109297386Y-92197658D01*
X109286321Y-92258989D01*
X109291543Y-92331997D01*
X109296326Y-92358506D01*
X109337463Y-92498606D01*
X109352361Y-92531228D01*
X109431302Y-92654064D01*
X109454788Y-92681169D01*
X109565139Y-92776788D01*
X109595309Y-92796177D01*
X109728129Y-92856834D01*
X109762539Y-92866938D01*
X109907068Y-92887718D01*
X109925000Y-92889000D01*
X110050000Y-92889000D01*
X110118121Y-92868998D01*
X110164614Y-92815342D01*
X110176000Y-92763000D01*
X110176000Y-92250000D01*
X110172917Y-92239500D01*
X110324000Y-92239500D01*
X110324000Y-92763000D01*
X110344002Y-92831121D01*
X110397658Y-92877614D01*
X110450000Y-92889000D01*
X110465500Y-92889000D01*
X110465500Y-94353763D01*
X110461578Y-94383553D01*
X110461578Y-94416447D01*
X110466578Y-94454425D01*
X110482483Y-94575232D01*
X110490996Y-94607002D01*
X110552284Y-94754967D01*
X110568731Y-94783454D01*
X110666228Y-94910514D01*
X110689486Y-94933772D01*
X110816546Y-95031269D01*
X110845033Y-95047716D01*
X110992998Y-95109004D01*
X111024768Y-95117517D01*
X111183553Y-95138422D01*
X111216447Y-95138422D01*
X111246237Y-95134500D01*
X114012207Y-95134500D01*
X114127200Y-95229631D01*
X114153868Y-95246555D01*
X114300954Y-95315768D01*
X114330992Y-95325528D01*
X114471169Y-95352268D01*
X114494779Y-95354500D01*
X114864579Y-95354500D01*
X114880371Y-95353506D01*
X115002067Y-95338132D01*
X115032658Y-95330278D01*
X115183800Y-95270437D01*
X115202626Y-95260087D01*
X115320954Y-95315768D01*
X115350992Y-95325528D01*
X115491169Y-95352268D01*
X115514779Y-95354500D01*
X115884579Y-95354500D01*
X115900371Y-95353506D01*
X116022067Y-95338132D01*
X116052659Y-95330278D01*
X116168281Y-95284500D01*
X117560500Y-95284500D01*
X117560500Y-95400000D01*
X117560821Y-95408989D01*
X117566048Y-95482068D01*
X117570831Y-95508577D01*
X117612008Y-95648814D01*
X117626906Y-95681437D01*
X117705925Y-95804392D01*
X117729410Y-95831495D01*
X117839868Y-95927208D01*
X117870039Y-95946598D01*
X118002988Y-96007314D01*
X118037399Y-96017418D01*
X118182069Y-96038218D01*
X118200000Y-96039500D01*
X120200000Y-96039500D01*
X120208989Y-96039179D01*
X120282068Y-96033952D01*
X120308577Y-96029169D01*
X120448814Y-95987992D01*
X120481437Y-95973094D01*
X120604392Y-95894075D01*
X120631495Y-95870590D01*
X120727208Y-95760132D01*
X120746598Y-95729961D01*
X120807314Y-95597012D01*
X120817418Y-95562601D01*
X120838218Y-95417931D01*
X120839500Y-95400000D01*
X120839500Y-95284500D01*
X121616146Y-95284500D01*
X121668462Y-95334059D01*
X121691830Y-95351540D01*
X121838481Y-95436721D01*
X121865243Y-95448357D01*
X122027557Y-95497517D01*
X122052879Y-95502428D01*
X122126526Y-95509001D01*
X122137727Y-95509500D01*
X122674135Y-95509500D01*
X122688726Y-95508652D01*
X122814295Y-95494012D01*
X122842695Y-95487299D01*
X123002113Y-95429433D01*
X123028207Y-95416366D01*
X123170036Y-95323379D01*
X123192423Y-95304660D01*
X123201885Y-95294672D01*
X123243462Y-95334059D01*
X123266830Y-95351540D01*
X123413481Y-95436721D01*
X123440243Y-95448357D01*
X123602557Y-95497517D01*
X123627879Y-95502428D01*
X123701526Y-95509001D01*
X123712727Y-95509500D01*
X124249135Y-95509500D01*
X124263726Y-95508652D01*
X124389295Y-95494012D01*
X124417695Y-95487299D01*
X124577113Y-95429433D01*
X124603207Y-95416366D01*
X124745036Y-95323379D01*
X124767424Y-95304660D01*
X124884059Y-95181538D01*
X124901540Y-95158170D01*
X124986721Y-95011519D01*
X124998357Y-94984757D01*
X125047517Y-94822443D01*
X125052428Y-94797121D01*
X125059001Y-94723474D01*
X125059500Y-94712273D01*
X125059500Y-94617479D01*
X125061455Y-94611316D01*
X125066568Y-94587263D01*
X125083715Y-94434390D01*
X125084500Y-94420345D01*
X125084500Y-90487948D01*
X125088707Y-90449221D01*
X125088965Y-90424632D01*
X125084454Y-90373075D01*
X125083899Y-90361711D01*
X125079828Y-90320192D01*
X125071726Y-90227583D01*
X125069671Y-90216606D01*
X125069597Y-90215849D01*
X125068362Y-90209613D01*
X125067201Y-90203410D01*
X125066990Y-90202684D01*
X125064820Y-90191725D01*
X125037961Y-90102766D01*
X125012017Y-90013465D01*
X125007870Y-90003097D01*
X125007650Y-90002369D01*
X125005228Y-89996491D01*
X125002883Y-89990630D01*
X125002536Y-89989960D01*
X124998279Y-89979632D01*
X124954634Y-89897548D01*
X124911857Y-89815022D01*
X124905773Y-89805653D01*
X124905419Y-89804988D01*
X124901935Y-89799744D01*
X124898462Y-89794396D01*
X124897986Y-89793800D01*
X124891809Y-89784502D01*
X124833005Y-89712401D01*
X124802490Y-89674176D01*
X124794972Y-89665768D01*
X124766793Y-89631217D01*
X124749465Y-89613768D01*
X124713148Y-89583724D01*
X123163424Y-88034000D01*
X126066000Y-88034000D01*
X126066000Y-113564487D01*
G04 #@! TA.AperFunction,Conductor*
G36*
X126066000Y-113564487D02*
G01*
X119614843Y-107113330D01*
X119596547Y-107089486D01*
X119573288Y-107066228D01*
X119446228Y-106968731D01*
X119417741Y-106952284D01*
X119356452Y-106926898D01*
X119269779Y-106890996D01*
X119238006Y-106882482D01*
X119079220Y-106861578D01*
X119046328Y-106861578D01*
X119016536Y-106865500D01*
X110563320Y-106865500D01*
X110575768Y-106839046D01*
X110585528Y-106809008D01*
X110612268Y-106668831D01*
X110614500Y-106645221D01*
X110614500Y-106175421D01*
X110613506Y-106159629D01*
X110598132Y-106037933D01*
X110590278Y-106007342D01*
X110530437Y-105856200D01*
X110515221Y-105828522D01*
X110419672Y-105697010D01*
X110398052Y-105673987D01*
X110272800Y-105570369D01*
X110246132Y-105553445D01*
X110099046Y-105484232D01*
X110069008Y-105474472D01*
X109928831Y-105447732D01*
X109905221Y-105445500D01*
X109535421Y-105445500D01*
X109519629Y-105446494D01*
X109397933Y-105461868D01*
X109367342Y-105469722D01*
X109216200Y-105529563D01*
X109197374Y-105539913D01*
X109079046Y-105484232D01*
X109049008Y-105474472D01*
X108908831Y-105447732D01*
X108885221Y-105445500D01*
X108515421Y-105445500D01*
X108499629Y-105446494D01*
X108377933Y-105461868D01*
X108347342Y-105469722D01*
X108196200Y-105529563D01*
X108168522Y-105544779D01*
X108037010Y-105640328D01*
X108013987Y-105661948D01*
X107910369Y-105787200D01*
X107893445Y-105813868D01*
X107824232Y-105960954D01*
X107814472Y-105990992D01*
X107787732Y-106131169D01*
X107785500Y-106154779D01*
X107785500Y-106265500D01*
X106089500Y-106265500D01*
X106089500Y-106100000D01*
X106089179Y-106091011D01*
X106083952Y-106017932D01*
X106079169Y-105991422D01*
X106077814Y-105986808D01*
X106087717Y-105917932D01*
X106089000Y-105900000D01*
X106089000Y-105700000D01*
X106088679Y-105691011D01*
X106083457Y-105618003D01*
X106078674Y-105591492D01*
X106077980Y-105589129D01*
X106088217Y-105517932D01*
X106089500Y-105500000D01*
X106089500Y-105300000D01*
X106089179Y-105291011D01*
X106083952Y-105217932D01*
X106079169Y-105191423D01*
X106078150Y-105187954D01*
X106088218Y-105117931D01*
X106089500Y-105100000D01*
X106089500Y-104900000D01*
X106089179Y-104891011D01*
X106083952Y-104817932D01*
X106079169Y-104791423D01*
X106078150Y-104787954D01*
X106088218Y-104717931D01*
X106089500Y-104700000D01*
X106089500Y-104500000D01*
X106089179Y-104491011D01*
X106083952Y-104417932D01*
X106079169Y-104391423D01*
X106078150Y-104387954D01*
X106088218Y-104317931D01*
X106089500Y-104300000D01*
X106089500Y-104100000D01*
X106089179Y-104091011D01*
X106083952Y-104017932D01*
X106079169Y-103991422D01*
X106077814Y-103986808D01*
X106087717Y-103917932D01*
X106089000Y-103900000D01*
X106089000Y-103700000D01*
X106088679Y-103691011D01*
X106083457Y-103618003D01*
X106078674Y-103591492D01*
X106077980Y-103589129D01*
X106088217Y-103517932D01*
X106089500Y-103500000D01*
X106089500Y-103300000D01*
X106089179Y-103291011D01*
X106083952Y-103217932D01*
X106079169Y-103191423D01*
X106078150Y-103187954D01*
X106088218Y-103117931D01*
X106089500Y-103100000D01*
X106089500Y-102900000D01*
X106089179Y-102891011D01*
X106083952Y-102817932D01*
X106079169Y-102791423D01*
X106078150Y-102787954D01*
X106088218Y-102717931D01*
X106089500Y-102700000D01*
X106089500Y-102500000D01*
X106089179Y-102491011D01*
X106083952Y-102417932D01*
X106079169Y-102391423D01*
X106078150Y-102387954D01*
X106088218Y-102317931D01*
X106089500Y-102300000D01*
X106089500Y-102100000D01*
X106089179Y-102091011D01*
X106083952Y-102017932D01*
X106079169Y-101991422D01*
X106077814Y-101986808D01*
X106087717Y-101917932D01*
X106089000Y-101900000D01*
X106089000Y-101700000D01*
X106088679Y-101691011D01*
X106083457Y-101618003D01*
X106078674Y-101591492D01*
X106077980Y-101589129D01*
X106088217Y-101517932D01*
X106089500Y-101500000D01*
X106089500Y-101300000D01*
X106089179Y-101291011D01*
X106083952Y-101217932D01*
X106079169Y-101191423D01*
X106078150Y-101187954D01*
X106088218Y-101117931D01*
X106089500Y-101100000D01*
X106089500Y-100900000D01*
X106089179Y-100891011D01*
X106083952Y-100817932D01*
X106079169Y-100791423D01*
X106078150Y-100787954D01*
X106088218Y-100717931D01*
X106089500Y-100700000D01*
X106089500Y-100500000D01*
X106089179Y-100491011D01*
X106083952Y-100417932D01*
X106079169Y-100391423D01*
X106078150Y-100387954D01*
X106088218Y-100317931D01*
X106089500Y-100300000D01*
X106089500Y-100100000D01*
X106089179Y-100091011D01*
X106083952Y-100017932D01*
X106079169Y-99991422D01*
X106077814Y-99986808D01*
X106087717Y-99917932D01*
X106089000Y-99900000D01*
X106089000Y-99700000D01*
X106088679Y-99691011D01*
X106083457Y-99618003D01*
X106078674Y-99591492D01*
X106077980Y-99589129D01*
X106088217Y-99517932D01*
X106089500Y-99500000D01*
X106089500Y-99300000D01*
X106089179Y-99291011D01*
X106083952Y-99217932D01*
X106079169Y-99191423D01*
X106078150Y-99187954D01*
X106088218Y-99117931D01*
X106089500Y-99100000D01*
X106089500Y-98900000D01*
X106089179Y-98891011D01*
X106083952Y-98817932D01*
X106079169Y-98791422D01*
X106077814Y-98786808D01*
X106087717Y-98717932D01*
X106089000Y-98700000D01*
X106089000Y-98500000D01*
X106088679Y-98491011D01*
X106083457Y-98418003D01*
X106078674Y-98391492D01*
X106077980Y-98389129D01*
X106088217Y-98317932D01*
X106089500Y-98300000D01*
X106089500Y-98100000D01*
X106089179Y-98091011D01*
X106083952Y-98017932D01*
X106079169Y-97991423D01*
X106078150Y-97987954D01*
X106088218Y-97917931D01*
X106089500Y-97900000D01*
X106089500Y-97700000D01*
X106089179Y-97691011D01*
X106083952Y-97617932D01*
X106079169Y-97591422D01*
X106077814Y-97586808D01*
X106087717Y-97517932D01*
X106089000Y-97500000D01*
X106089000Y-97300000D01*
X106088679Y-97291011D01*
X106083457Y-97218003D01*
X106078674Y-97191492D01*
X106077980Y-97189129D01*
X106088217Y-97117932D01*
X106089500Y-97100000D01*
X106089500Y-96900000D01*
X106089275Y-96893700D01*
X110353271Y-101157696D01*
X110377685Y-101188061D01*
X110394891Y-101205631D01*
X110434543Y-101238903D01*
X110442966Y-101246541D01*
X110475190Y-101273010D01*
X110546414Y-101332774D01*
X110555634Y-101339087D01*
X110556218Y-101339567D01*
X110561426Y-101343053D01*
X110566705Y-101346668D01*
X110567381Y-101347040D01*
X110576654Y-101353247D01*
X110658498Y-101397131D01*
X110740039Y-101441959D01*
X110750306Y-101446359D01*
X110750967Y-101446713D01*
X110756816Y-101449148D01*
X110762652Y-101451649D01*
X110763368Y-101451876D01*
X110773679Y-101456169D01*
X110862600Y-101483354D01*
X110951183Y-101511455D01*
X110962113Y-101513778D01*
X110962835Y-101513999D01*
X110969009Y-101515244D01*
X110975238Y-101516568D01*
X110975997Y-101516653D01*
X110986941Y-101518860D01*
X111079419Y-101528253D01*
X111128110Y-101533715D01*
X111139396Y-101534346D01*
X111183729Y-101538849D01*
X111208319Y-101538935D01*
X111255238Y-101534500D01*
X123149442Y-101534500D01*
X123157188Y-101608192D01*
X123162665Y-101633957D01*
X123223261Y-101820455D01*
X123233975Y-101844519D01*
X123332023Y-102014343D01*
X123347506Y-102035653D01*
X123478719Y-102181380D01*
X123498294Y-102199006D01*
X123656939Y-102314268D01*
X123679751Y-102327439D01*
X123858893Y-102407198D01*
X123883945Y-102415337D01*
X123919803Y-102422959D01*
X123990593Y-102417558D01*
X124047226Y-102374741D01*
X124071720Y-102308104D01*
X124072000Y-102299713D01*
X124072000Y-101654000D01*
X124328000Y-101654000D01*
X124328000Y-102299713D01*
X124348002Y-102367834D01*
X124401658Y-102414327D01*
X124471932Y-102424431D01*
X124480197Y-102422959D01*
X124516055Y-102415337D01*
X124541107Y-102407198D01*
X124720249Y-102327439D01*
X124743061Y-102314268D01*
X124901706Y-102199006D01*
X124921281Y-102181380D01*
X125052494Y-102035653D01*
X125067977Y-102014343D01*
X125166025Y-101844519D01*
X125176739Y-101820455D01*
X125218172Y-101692936D01*
X125220199Y-101621968D01*
X125183537Y-101561170D01*
X125119824Y-101529845D01*
X125098339Y-101528000D01*
X124454000Y-101528000D01*
X124385879Y-101548002D01*
X124339386Y-101601658D01*
X124328000Y-101654000D01*
X124072000Y-101654000D01*
X124072000Y-101534500D01*
X124250994Y-101534500D01*
X124263289Y-101533899D01*
X124409152Y-101519597D01*
X124433275Y-101514820D01*
X124599941Y-101464500D01*
X124625000Y-101464500D01*
X124633989Y-101464179D01*
X124707068Y-101458952D01*
X124733577Y-101454169D01*
X124873814Y-101412992D01*
X124906437Y-101398094D01*
X125029392Y-101319075D01*
X125056495Y-101295590D01*
X125076936Y-101272000D01*
X125098339Y-101272000D01*
X125166460Y-101251998D01*
X125212953Y-101198342D01*
X125223057Y-101128068D01*
X125218172Y-101107065D01*
X125207904Y-101075463D01*
X125232314Y-101022012D01*
X125242418Y-100987601D01*
X125263218Y-100842931D01*
X125264500Y-100825000D01*
X125264500Y-100798261D01*
X125313165Y-100641052D01*
X125318110Y-100616962D01*
X125338785Y-100420246D01*
X125338956Y-100395656D01*
X125321029Y-100198669D01*
X125316422Y-100174514D01*
X125264500Y-99998097D01*
X125264500Y-99975000D01*
X125264179Y-99966011D01*
X125258952Y-99892932D01*
X125254169Y-99866423D01*
X125212992Y-99726186D01*
X125198094Y-99693563D01*
X125119075Y-99570608D01*
X125095590Y-99543505D01*
X124985132Y-99447792D01*
X124954961Y-99428402D01*
X124822012Y-99367686D01*
X124787601Y-99357582D01*
X124642931Y-99336782D01*
X124625000Y-99335500D01*
X124596838Y-99335500D01*
X124448817Y-99288545D01*
X124424763Y-99283432D01*
X124271890Y-99266285D01*
X124257845Y-99265500D01*
X111669924Y-99265500D01*
X107334500Y-94930076D01*
X107334500Y-92849006D01*
X107333899Y-92836711D01*
X107319597Y-92690848D01*
X107314820Y-92666725D01*
X107257649Y-92477367D01*
X107248279Y-92454632D01*
X107155418Y-92279985D01*
X107141809Y-92259502D01*
X107039860Y-92134500D01*
X109376240Y-92134500D01*
X109343879Y-92144002D01*
X109297386Y-92197658D01*
X109286321Y-92258989D01*
X109291543Y-92331997D01*
X109296326Y-92358506D01*
X109337463Y-92498606D01*
X109352361Y-92531228D01*
X109431302Y-92654064D01*
X109454788Y-92681169D01*
X109565139Y-92776788D01*
X109595309Y-92796177D01*
X109728129Y-92856834D01*
X109762539Y-92866938D01*
X109907068Y-92887718D01*
X109925000Y-92889000D01*
X110050000Y-92889000D01*
X110118121Y-92868998D01*
X110164614Y-92815342D01*
X110176000Y-92763000D01*
X110176000Y-92250000D01*
X110172917Y-92239500D01*
X110324000Y-92239500D01*
X110324000Y-92763000D01*
X110344002Y-92831121D01*
X110397658Y-92877614D01*
X110450000Y-92889000D01*
X110465500Y-92889000D01*
X110465500Y-94353763D01*
X110461578Y-94383553D01*
X110461578Y-94416447D01*
X110466578Y-94454425D01*
X110482483Y-94575232D01*
X110490996Y-94607002D01*
X110552284Y-94754967D01*
X110568731Y-94783454D01*
X110666228Y-94910514D01*
X110689486Y-94933772D01*
X110816546Y-95031269D01*
X110845033Y-95047716D01*
X110992998Y-95109004D01*
X111024768Y-95117517D01*
X111183553Y-95138422D01*
X111216447Y-95138422D01*
X111246237Y-95134500D01*
X114012207Y-95134500D01*
X114127200Y-95229631D01*
X114153868Y-95246555D01*
X114300954Y-95315768D01*
X114330992Y-95325528D01*
X114471169Y-95352268D01*
X114494779Y-95354500D01*
X114864579Y-95354500D01*
X114880371Y-95353506D01*
X115002067Y-95338132D01*
X115032658Y-95330278D01*
X115183800Y-95270437D01*
X115202626Y-95260087D01*
X115320954Y-95315768D01*
X115350992Y-95325528D01*
X115491169Y-95352268D01*
X115514779Y-95354500D01*
X115884579Y-95354500D01*
X115900371Y-95353506D01*
X116022067Y-95338132D01*
X116052659Y-95330278D01*
X116168281Y-95284500D01*
X117560500Y-95284500D01*
X117560500Y-95400000D01*
X117560821Y-95408989D01*
X117566048Y-95482068D01*
X117570831Y-95508577D01*
X117612008Y-95648814D01*
X117626906Y-95681437D01*
X117705925Y-95804392D01*
X117729410Y-95831495D01*
X117839868Y-95927208D01*
X117870039Y-95946598D01*
X118002988Y-96007314D01*
X118037399Y-96017418D01*
X118182069Y-96038218D01*
X118200000Y-96039500D01*
X120200000Y-96039500D01*
X120208989Y-96039179D01*
X120282068Y-96033952D01*
X120308577Y-96029169D01*
X120448814Y-95987992D01*
X120481437Y-95973094D01*
X120604392Y-95894075D01*
X120631495Y-95870590D01*
X120727208Y-95760132D01*
X120746598Y-95729961D01*
X120807314Y-95597012D01*
X120817418Y-95562601D01*
X120838218Y-95417931D01*
X120839500Y-95400000D01*
X120839500Y-95284500D01*
X121616146Y-95284500D01*
X121668462Y-95334059D01*
X121691830Y-95351540D01*
X121838481Y-95436721D01*
X121865243Y-95448357D01*
X122027557Y-95497517D01*
X122052879Y-95502428D01*
X122126526Y-95509001D01*
X122137727Y-95509500D01*
X122674135Y-95509500D01*
X122688726Y-95508652D01*
X122814295Y-95494012D01*
X122842695Y-95487299D01*
X123002113Y-95429433D01*
X123028207Y-95416366D01*
X123170036Y-95323379D01*
X123192423Y-95304660D01*
X123201885Y-95294672D01*
X123243462Y-95334059D01*
X123266830Y-95351540D01*
X123413481Y-95436721D01*
X123440243Y-95448357D01*
X123602557Y-95497517D01*
X123627879Y-95502428D01*
X123701526Y-95509001D01*
X123712727Y-95509500D01*
X124249135Y-95509500D01*
X124263726Y-95508652D01*
X124389295Y-95494012D01*
X124417695Y-95487299D01*
X124577113Y-95429433D01*
X124603207Y-95416366D01*
X124745036Y-95323379D01*
X124767424Y-95304660D01*
X124884059Y-95181538D01*
X124901540Y-95158170D01*
X124986721Y-95011519D01*
X124998357Y-94984757D01*
X125047517Y-94822443D01*
X125052428Y-94797121D01*
X125059001Y-94723474D01*
X125059500Y-94712273D01*
X125059500Y-94617479D01*
X125061455Y-94611316D01*
X125066568Y-94587263D01*
X125083715Y-94434390D01*
X125084500Y-94420345D01*
X125084500Y-90487948D01*
X125088707Y-90449221D01*
X125088965Y-90424632D01*
X125084454Y-90373075D01*
X125083899Y-90361711D01*
X125079828Y-90320192D01*
X125071726Y-90227583D01*
X125069671Y-90216606D01*
X125069597Y-90215849D01*
X125068362Y-90209613D01*
X125067201Y-90203410D01*
X125066990Y-90202684D01*
X125064820Y-90191725D01*
X125037961Y-90102766D01*
X125012017Y-90013465D01*
X125007870Y-90003097D01*
X125007650Y-90002369D01*
X125005228Y-89996491D01*
X125002883Y-89990630D01*
X125002536Y-89989960D01*
X124998279Y-89979632D01*
X124954634Y-89897548D01*
X124911857Y-89815022D01*
X124905773Y-89805653D01*
X124905419Y-89804988D01*
X124901935Y-89799744D01*
X124898462Y-89794396D01*
X124897986Y-89793800D01*
X124891809Y-89784502D01*
X124833005Y-89712401D01*
X124802490Y-89674176D01*
X124794972Y-89665768D01*
X124766793Y-89631217D01*
X124749465Y-89613768D01*
X124713148Y-89583724D01*
X123163424Y-88034000D01*
X126066000Y-88034000D01*
X126066000Y-113564487D01*
G37*
G04 #@! TD.AperFunction*
X100747934Y-95486673D02*
X100766228Y-95510514D01*
X100789486Y-95533772D01*
X100916546Y-95631269D01*
X100945033Y-95647716D01*
X101003029Y-95671738D01*
X101032159Y-95683804D01*
X101031000Y-95700000D01*
X101031000Y-95900000D01*
X101031321Y-95908989D01*
X101036543Y-95981997D01*
X101041326Y-96008508D01*
X101042020Y-96010871D01*
X101031783Y-96082068D01*
X101030500Y-96100000D01*
X101030500Y-96300000D01*
X101030821Y-96308989D01*
X101036048Y-96382068D01*
X101040831Y-96408577D01*
X101041850Y-96412046D01*
X101031782Y-96482069D01*
X101030500Y-96500000D01*
X101030500Y-96700000D01*
X101030821Y-96708989D01*
X101036048Y-96782068D01*
X101040831Y-96808577D01*
X101041850Y-96812046D01*
X101031782Y-96882069D01*
X101030500Y-96900000D01*
X101030500Y-97100000D01*
X101030821Y-97108989D01*
X101036048Y-97182068D01*
X101040831Y-97208578D01*
X101042186Y-97213192D01*
X101032283Y-97282068D01*
X101031000Y-97300000D01*
X101031000Y-97500000D01*
X101031321Y-97508989D01*
X101036543Y-97581997D01*
X101041326Y-97608508D01*
X101042020Y-97610871D01*
X101031783Y-97682068D01*
X101030500Y-97700000D01*
X101030500Y-97900000D01*
X101030821Y-97908989D01*
X101036048Y-97982068D01*
X101040831Y-98008577D01*
X101041850Y-98012046D01*
X101031782Y-98082069D01*
X101030500Y-98100000D01*
X101030500Y-98300000D01*
X101030821Y-98308989D01*
X101036048Y-98382068D01*
X101040831Y-98408578D01*
X101042186Y-98413192D01*
X101032283Y-98482068D01*
X101031000Y-98500000D01*
X101031000Y-98700000D01*
X101031321Y-98708989D01*
X101036543Y-98781997D01*
X101041326Y-98808508D01*
X101042020Y-98810871D01*
X101031783Y-98882068D01*
X101030500Y-98900000D01*
X101030500Y-99100000D01*
X101030821Y-99108989D01*
X101036048Y-99182068D01*
X101040831Y-99208577D01*
X101041850Y-99212046D01*
X101031782Y-99282069D01*
X101030500Y-99300000D01*
X101030500Y-99500000D01*
X101030821Y-99508989D01*
X101036048Y-99582068D01*
X101040831Y-99608577D01*
X101041850Y-99612046D01*
X101031782Y-99682069D01*
X101030500Y-99700000D01*
X101030500Y-99900000D01*
X101030821Y-99908989D01*
X101036048Y-99982068D01*
X101040831Y-100008578D01*
X101042186Y-100013192D01*
X101032283Y-100082068D01*
X101031000Y-100100000D01*
X101031000Y-100300000D01*
X101031321Y-100308989D01*
X101036543Y-100381997D01*
X101041326Y-100408508D01*
X101042020Y-100410871D01*
X101031783Y-100482068D01*
X101030500Y-100500000D01*
X101030500Y-100700000D01*
X101030821Y-100708989D01*
X101036048Y-100782068D01*
X101040831Y-100808577D01*
X101041850Y-100812046D01*
X101031782Y-100882069D01*
X101030500Y-100900000D01*
X101030500Y-101100000D01*
X101030821Y-101108989D01*
X101036048Y-101182068D01*
X101040831Y-101208577D01*
X101041850Y-101212046D01*
X101031782Y-101282069D01*
X101030500Y-101300000D01*
X101030500Y-101500000D01*
X101030821Y-101508989D01*
X101036048Y-101582068D01*
X101040831Y-101608577D01*
X101041850Y-101612046D01*
X101031782Y-101682069D01*
X101030500Y-101700000D01*
X101030500Y-101900000D01*
X101030821Y-101908989D01*
X101036048Y-101982068D01*
X101040831Y-102008578D01*
X101042186Y-102013192D01*
X101032283Y-102082068D01*
X101031000Y-102100000D01*
X101031000Y-102300000D01*
X101031321Y-102308989D01*
X101036543Y-102381997D01*
X101041326Y-102408508D01*
X101042020Y-102410871D01*
X101031783Y-102482068D01*
X101030500Y-102500000D01*
X101030500Y-102700000D01*
X101030821Y-102708989D01*
X101036048Y-102782068D01*
X101040831Y-102808577D01*
X101041850Y-102812046D01*
X101031782Y-102882069D01*
X101030500Y-102900000D01*
X101030500Y-103100000D01*
X101030821Y-103108989D01*
X101036048Y-103182068D01*
X101040831Y-103208577D01*
X101041850Y-103212046D01*
X101031782Y-103282069D01*
X101030500Y-103300000D01*
X101030500Y-103500000D01*
X101030821Y-103508989D01*
X101036048Y-103582068D01*
X101040831Y-103608577D01*
X101041850Y-103612046D01*
X101031782Y-103682069D01*
X101030500Y-103700000D01*
X101030500Y-103900000D01*
X101030821Y-103908989D01*
X101036048Y-103982068D01*
X101040831Y-104008578D01*
X101042186Y-104013192D01*
X101032283Y-104082068D01*
X101031000Y-104100000D01*
X101031000Y-104300000D01*
X101031321Y-104308989D01*
X101036543Y-104381997D01*
X101041326Y-104408508D01*
X101042020Y-104410871D01*
X101031783Y-104482068D01*
X101030500Y-104500000D01*
X101030500Y-104700000D01*
X101030821Y-104708989D01*
X101036048Y-104782068D01*
X101040831Y-104808577D01*
X101041850Y-104812046D01*
X101031782Y-104882069D01*
X101030500Y-104900000D01*
X101030500Y-105100000D01*
X101030821Y-105108989D01*
X101036048Y-105182068D01*
X101040831Y-105208577D01*
X101041850Y-105212046D01*
X101031782Y-105282069D01*
X101030500Y-105300000D01*
X101030500Y-105500000D01*
X101030821Y-105508989D01*
X101036048Y-105582068D01*
X101040831Y-105608577D01*
X101041850Y-105612046D01*
X101031782Y-105682069D01*
X101030500Y-105700000D01*
X101030500Y-105900000D01*
X101030821Y-105908989D01*
X101036048Y-105982068D01*
X101040831Y-106008578D01*
X101042186Y-106013192D01*
X101032283Y-106082068D01*
X101031000Y-106100000D01*
X101031000Y-106300000D01*
X101031321Y-106308989D01*
X101036543Y-106381997D01*
X101041326Y-106408508D01*
X101042020Y-106410871D01*
X101031783Y-106482068D01*
X101030500Y-106500000D01*
X101030500Y-106700000D01*
X101030821Y-106708989D01*
X101036048Y-106782068D01*
X101040831Y-106808577D01*
X101041850Y-106812046D01*
X101031782Y-106882069D01*
X101030500Y-106900000D01*
X101030500Y-107100000D01*
X101030821Y-107108989D01*
X101036048Y-107182068D01*
X101040831Y-107208577D01*
X101041850Y-107212046D01*
X101031782Y-107282069D01*
X101030500Y-107300000D01*
X101030500Y-107500000D01*
X101030821Y-107508989D01*
X101035577Y-107575480D01*
X100606177Y-107575480D01*
X100576387Y-107571558D01*
X100543494Y-107571558D01*
X100426194Y-107587001D01*
X100394155Y-107591219D01*
X100362383Y-107599732D01*
X100334500Y-107611281D01*
X100334500Y-95769925D01*
X100682843Y-95421582D01*
X100747934Y-95486673D01*
G04 #@! TA.AperFunction,Conductor*
G36*
X100747934Y-95486673D02*
G01*
X100766228Y-95510514D01*
X100789486Y-95533772D01*
X100916546Y-95631269D01*
X100945033Y-95647716D01*
X101003029Y-95671738D01*
X101032159Y-95683804D01*
X101031000Y-95700000D01*
X101031000Y-95900000D01*
X101031321Y-95908989D01*
X101036543Y-95981997D01*
X101041326Y-96008508D01*
X101042020Y-96010871D01*
X101031783Y-96082068D01*
X101030500Y-96100000D01*
X101030500Y-96300000D01*
X101030821Y-96308989D01*
X101036048Y-96382068D01*
X101040831Y-96408577D01*
X101041850Y-96412046D01*
X101031782Y-96482069D01*
X101030500Y-96500000D01*
X101030500Y-96700000D01*
X101030821Y-96708989D01*
X101036048Y-96782068D01*
X101040831Y-96808577D01*
X101041850Y-96812046D01*
X101031782Y-96882069D01*
X101030500Y-96900000D01*
X101030500Y-97100000D01*
X101030821Y-97108989D01*
X101036048Y-97182068D01*
X101040831Y-97208578D01*
X101042186Y-97213192D01*
X101032283Y-97282068D01*
X101031000Y-97300000D01*
X101031000Y-97500000D01*
X101031321Y-97508989D01*
X101036543Y-97581997D01*
X101041326Y-97608508D01*
X101042020Y-97610871D01*
X101031783Y-97682068D01*
X101030500Y-97700000D01*
X101030500Y-97900000D01*
X101030821Y-97908989D01*
X101036048Y-97982068D01*
X101040831Y-98008577D01*
X101041850Y-98012046D01*
X101031782Y-98082069D01*
X101030500Y-98100000D01*
X101030500Y-98300000D01*
X101030821Y-98308989D01*
X101036048Y-98382068D01*
X101040831Y-98408578D01*
X101042186Y-98413192D01*
X101032283Y-98482068D01*
X101031000Y-98500000D01*
X101031000Y-98700000D01*
X101031321Y-98708989D01*
X101036543Y-98781997D01*
X101041326Y-98808508D01*
X101042020Y-98810871D01*
X101031783Y-98882068D01*
X101030500Y-98900000D01*
X101030500Y-99100000D01*
X101030821Y-99108989D01*
X101036048Y-99182068D01*
X101040831Y-99208577D01*
X101041850Y-99212046D01*
X101031782Y-99282069D01*
X101030500Y-99300000D01*
X101030500Y-99500000D01*
X101030821Y-99508989D01*
X101036048Y-99582068D01*
X101040831Y-99608577D01*
X101041850Y-99612046D01*
X101031782Y-99682069D01*
X101030500Y-99700000D01*
X101030500Y-99900000D01*
X101030821Y-99908989D01*
X101036048Y-99982068D01*
X101040831Y-100008578D01*
X101042186Y-100013192D01*
X101032283Y-100082068D01*
X101031000Y-100100000D01*
X101031000Y-100300000D01*
X101031321Y-100308989D01*
X101036543Y-100381997D01*
X101041326Y-100408508D01*
X101042020Y-100410871D01*
X101031783Y-100482068D01*
X101030500Y-100500000D01*
X101030500Y-100700000D01*
X101030821Y-100708989D01*
X101036048Y-100782068D01*
X101040831Y-100808577D01*
X101041850Y-100812046D01*
X101031782Y-100882069D01*
X101030500Y-100900000D01*
X101030500Y-101100000D01*
X101030821Y-101108989D01*
X101036048Y-101182068D01*
X101040831Y-101208577D01*
X101041850Y-101212046D01*
X101031782Y-101282069D01*
X101030500Y-101300000D01*
X101030500Y-101500000D01*
X101030821Y-101508989D01*
X101036048Y-101582068D01*
X101040831Y-101608577D01*
X101041850Y-101612046D01*
X101031782Y-101682069D01*
X101030500Y-101700000D01*
X101030500Y-101900000D01*
X101030821Y-101908989D01*
X101036048Y-101982068D01*
X101040831Y-102008578D01*
X101042186Y-102013192D01*
X101032283Y-102082068D01*
X101031000Y-102100000D01*
X101031000Y-102300000D01*
X101031321Y-102308989D01*
X101036543Y-102381997D01*
X101041326Y-102408508D01*
X101042020Y-102410871D01*
X101031783Y-102482068D01*
X101030500Y-102500000D01*
X101030500Y-102700000D01*
X101030821Y-102708989D01*
X101036048Y-102782068D01*
X101040831Y-102808577D01*
X101041850Y-102812046D01*
X101031782Y-102882069D01*
X101030500Y-102900000D01*
X101030500Y-103100000D01*
X101030821Y-103108989D01*
X101036048Y-103182068D01*
X101040831Y-103208577D01*
X101041850Y-103212046D01*
X101031782Y-103282069D01*
X101030500Y-103300000D01*
X101030500Y-103500000D01*
X101030821Y-103508989D01*
X101036048Y-103582068D01*
X101040831Y-103608577D01*
X101041850Y-103612046D01*
X101031782Y-103682069D01*
X101030500Y-103700000D01*
X101030500Y-103900000D01*
X101030821Y-103908989D01*
X101036048Y-103982068D01*
X101040831Y-104008578D01*
X101042186Y-104013192D01*
X101032283Y-104082068D01*
X101031000Y-104100000D01*
X101031000Y-104300000D01*
X101031321Y-104308989D01*
X101036543Y-104381997D01*
X101041326Y-104408508D01*
X101042020Y-104410871D01*
X101031783Y-104482068D01*
X101030500Y-104500000D01*
X101030500Y-104700000D01*
X101030821Y-104708989D01*
X101036048Y-104782068D01*
X101040831Y-104808577D01*
X101041850Y-104812046D01*
X101031782Y-104882069D01*
X101030500Y-104900000D01*
X101030500Y-105100000D01*
X101030821Y-105108989D01*
X101036048Y-105182068D01*
X101040831Y-105208577D01*
X101041850Y-105212046D01*
X101031782Y-105282069D01*
X101030500Y-105300000D01*
X101030500Y-105500000D01*
X101030821Y-105508989D01*
X101036048Y-105582068D01*
X101040831Y-105608577D01*
X101041850Y-105612046D01*
X101031782Y-105682069D01*
X101030500Y-105700000D01*
X101030500Y-105900000D01*
X101030821Y-105908989D01*
X101036048Y-105982068D01*
X101040831Y-106008578D01*
X101042186Y-106013192D01*
X101032283Y-106082068D01*
X101031000Y-106100000D01*
X101031000Y-106300000D01*
X101031321Y-106308989D01*
X101036543Y-106381997D01*
X101041326Y-106408508D01*
X101042020Y-106410871D01*
X101031783Y-106482068D01*
X101030500Y-106500000D01*
X101030500Y-106700000D01*
X101030821Y-106708989D01*
X101036048Y-106782068D01*
X101040831Y-106808577D01*
X101041850Y-106812046D01*
X101031782Y-106882069D01*
X101030500Y-106900000D01*
X101030500Y-107100000D01*
X101030821Y-107108989D01*
X101036048Y-107182068D01*
X101040831Y-107208577D01*
X101041850Y-107212046D01*
X101031782Y-107282069D01*
X101030500Y-107300000D01*
X101030500Y-107500000D01*
X101030821Y-107508989D01*
X101035577Y-107575480D01*
X100606177Y-107575480D01*
X100576387Y-107571558D01*
X100543494Y-107571558D01*
X100426194Y-107587001D01*
X100394155Y-107591219D01*
X100362383Y-107599732D01*
X100334500Y-107611281D01*
X100334500Y-95769925D01*
X100682843Y-95421582D01*
X100747934Y-95486673D01*
G37*
G04 #@! TD.AperFunction*
M02*
