G04 #@! TF.GenerationSoftware,KiCad,Pcbnew,(5.99.0-10539-g7356f9568d)*
G04 #@! TF.CreationDate,2021-06-02T15:47:54+01:00*
G04 #@! TF.ProjectId,CM4IOv5,434d3449-4f76-4352-9e6b-696361645f70,rev?*
G04 #@! TF.SameCoordinates,Original*
G04 #@! TF.FileFunction,Paste,Top*
G04 #@! TF.FilePolarity,Positive*
%FSLAX46Y46*%
G04 Gerber Fmt 4.6, Leading zero omitted, Abs format (unit mm)*
G04 Created by KiCad (PCBNEW (5.99.0-10539-g7356f9568d)) date 2021-06-02 15:47:54*
%MOMM*%
%LPD*%
G01*
G04 APERTURE LIST*
G04 Aperture macros list*
%AMRoundRect*
0 Rectangle with rounded corners*
0 $1 Rounding radius*
0 $2 $3 $4 $5 $6 $7 $8 $9 X,Y pos of 4 corners*
0 Add a 4 corners polygon primitive as box body*
4,1,4,$2,$3,$4,$5,$6,$7,$8,$9,$2,$3,0*
0 Add four circle primitives for the rounded corners*
1,1,$1+$1,$2,$3*
1,1,$1+$1,$4,$5*
1,1,$1+$1,$6,$7*
1,1,$1+$1,$8,$9*
0 Add four rect primitives between the rounded corners*
20,1,$1+$1,$2,$3,$4,$5,0*
20,1,$1+$1,$4,$5,$6,$7,0*
20,1,$1+$1,$6,$7,$8,$9,0*
20,1,$1+$1,$8,$9,$2,$3,0*%
G04 Aperture macros list end*
%ADD10RoundRect,0.135000X0.135000X0.185000X-0.135000X0.185000X-0.135000X-0.185000X0.135000X-0.185000X0*%
%ADD11R,0.650000X0.400000*%
%ADD12R,0.300000X0.550000*%
%ADD13R,0.400000X0.550000*%
%ADD14RoundRect,0.218750X-0.218750X-0.256250X0.218750X-0.256250X0.218750X0.256250X-0.218750X0.256250X0*%
%ADD15R,0.700000X0.200000*%
%ADD16RoundRect,0.140000X0.140000X0.170000X-0.140000X0.170000X-0.140000X-0.170000X0.140000X-0.170000X0*%
G04 APERTURE END LIST*
D10*
X115710000Y-91400000D03*
X114690000Y-91400000D03*
X115710000Y-94400000D03*
X114690000Y-94400000D03*
D11*
X110250000Y-90750000D03*
X110250000Y-91400000D03*
X110250000Y-92050000D03*
X112150000Y-92050000D03*
X112150000Y-90750000D03*
D12*
X120200000Y-113015000D03*
X119700000Y-113015000D03*
D13*
X119200000Y-113015000D03*
D12*
X118700000Y-113015000D03*
X118200000Y-113015000D03*
X118200000Y-113785000D03*
X118700000Y-113785000D03*
D13*
X119200000Y-113785000D03*
D12*
X119700000Y-113785000D03*
X120200000Y-113785000D03*
D10*
X109710000Y-107600000D03*
X108690000Y-107600000D03*
D14*
X122412500Y-94400000D03*
X123987500Y-94400000D03*
D15*
X102020000Y-90600000D03*
X105100000Y-90600000D03*
X102020000Y-91000000D03*
X105100000Y-91000000D03*
X102020000Y-91400000D03*
X105100000Y-91400000D03*
X102020000Y-91800000D03*
X105100000Y-91800000D03*
X102020000Y-92200000D03*
X105100000Y-92200000D03*
X102020000Y-92600000D03*
X105100000Y-92600000D03*
X102020000Y-93000000D03*
X105100000Y-93000000D03*
X102020000Y-93400000D03*
X105100000Y-93400000D03*
X102020000Y-93800000D03*
X105100000Y-93800000D03*
X102020000Y-94200000D03*
X105100000Y-94200000D03*
X102020000Y-94600000D03*
X105100000Y-94600000D03*
X102020000Y-95000000D03*
X105100000Y-95000000D03*
X102020000Y-95400000D03*
X105100000Y-95400000D03*
X102020000Y-95800000D03*
X105100000Y-95800000D03*
X102020000Y-96200000D03*
X105100000Y-96200000D03*
X102020000Y-96600000D03*
X105100000Y-96600000D03*
X102020000Y-97000000D03*
X105100000Y-97000000D03*
X102020000Y-97400000D03*
X105100000Y-97400000D03*
X102020000Y-97800000D03*
X105100000Y-97800000D03*
X102020000Y-98200000D03*
X105100000Y-98200000D03*
X102020000Y-98600000D03*
X105100000Y-98600000D03*
X102020000Y-99000000D03*
X105100000Y-99000000D03*
X102020000Y-99400000D03*
X105100000Y-99400000D03*
X102020000Y-99800000D03*
X105100000Y-99800000D03*
X102020000Y-100200000D03*
X105100000Y-100200000D03*
X102020000Y-100600000D03*
X105100000Y-100600000D03*
X102020000Y-101000000D03*
X105100000Y-101000000D03*
X102020000Y-101400000D03*
X105100000Y-101400000D03*
X102020000Y-101800000D03*
X105100000Y-101800000D03*
X102020000Y-102200000D03*
X105100000Y-102200000D03*
X102020000Y-102600000D03*
X105100000Y-102600000D03*
X102020000Y-103000000D03*
X105100000Y-103000000D03*
X102020000Y-103400000D03*
X105100000Y-103400000D03*
X102020000Y-103800000D03*
X105100000Y-103800000D03*
X102020000Y-104200000D03*
X105100000Y-104200000D03*
X102020000Y-104600000D03*
X105100000Y-104600000D03*
X102020000Y-105000000D03*
X105100000Y-105000000D03*
X102020000Y-105400000D03*
X105100000Y-105400000D03*
X102020000Y-105800000D03*
X105100000Y-105800000D03*
X102020000Y-106200000D03*
X105100000Y-106200000D03*
X102020000Y-106600000D03*
X105100000Y-106600000D03*
X102020000Y-107000000D03*
X105100000Y-107000000D03*
X102020000Y-107400000D03*
X105100000Y-107400000D03*
X102020000Y-107800000D03*
X105100000Y-107800000D03*
X102020000Y-108200000D03*
X105100000Y-108200000D03*
X102020000Y-108600000D03*
X105100000Y-108600000D03*
X102020000Y-109000000D03*
X105100000Y-109000000D03*
X102020000Y-109400000D03*
X105100000Y-109400000D03*
X102020000Y-109800000D03*
X105100000Y-109800000D03*
X102020000Y-110200000D03*
X105100000Y-110200000D03*
D14*
X122412500Y-91400000D03*
X123987500Y-91400000D03*
D10*
X109710000Y-106400000D03*
X108690000Y-106400000D03*
D16*
X116017500Y-112700000D03*
X115057500Y-112700000D03*
D12*
X113200000Y-113015000D03*
X112700000Y-113015000D03*
D13*
X112200000Y-113015000D03*
D12*
X111700000Y-113015000D03*
X111200000Y-113015000D03*
X111200000Y-113785000D03*
X111700000Y-113785000D03*
D13*
X112200000Y-113785000D03*
D12*
X112700000Y-113785000D03*
X113200000Y-113785000D03*
M02*
