M48
; DRILL file {KiCad (5.99.0-10539-g7356f9568d)} date Wed Jun  2 15:49:28 2021
; FORMAT={-:-/ absolute / inch / decimal}
; #@! TF.CreationDate,2021-06-02T15:49:28+01:00
; #@! TF.GenerationSoftware,Kicad,Pcbnew,(5.99.0-10539-g7356f9568d)
; #@! TF.FileFunction,Plated,1,4,PTH
FMAT,2
INCH
; #@! TA.AperFunction,Plated,PTH,ViaDrill
T1C0.0098
; #@! TA.AperFunction,Plated,PTH,ComponentDrill
T2C0.0197
; #@! TA.AperFunction,Plated,PTH,ComponentDrill
T3C0.0354
; #@! TA.AperFunction,Plated,PTH,ComponentDrill
T4C0.0402
; #@! TA.AperFunction,Plated,PTH,ComponentDrill
T5C0.0669
%
G90
G05
T1
X3.9731Y-4.2977
X3.9843Y-4.1791
X3.9843Y-4.1791
X3.987Y-3.5795
X3.9901Y-3.9509
X3.9901Y-3.9509
X3.9912Y-4.2401
X3.9924Y-3.7741
X3.9935Y-3.8832
X3.9935Y-4.0223
X3.9935Y-4.101
X3.9941Y-3.8346
X4.0236Y-4.3465
X4.0335Y-4.5236
X4.1811Y-4.2874
X4.1811Y-4.3071
X4.2598Y-4.6614
X4.3287Y-4.061
X4.3976Y-3.815
X4.4162Y-4.4326
X4.4961Y-4.4252
X4.6919Y-4.4252
X4.7224Y-4.0906
X4.7815Y-4.437
X4.8406Y-3.8248
X4.8878Y-4.622
X4.9094Y-4.3366
X4.9291Y-3.5098
T2
X4.8898Y-3.9528
X4.8898Y-3.9921
T3
X4.3498Y-4.5865
X4.3498Y-4.7857
X4.3998Y-4.6865
X4.4498Y-4.5865
X4.4498Y-4.8357
X4.4998Y-4.6865
X4.5498Y-4.5865
X4.5998Y-4.6865
X4.6498Y-4.5865
X4.6998Y-4.6865
X4.6998Y-4.8357
X4.7498Y-4.5865
X4.7998Y-4.6865
X4.7998Y-4.7857
T4
X4.3138Y-5.0964
X4.4138Y-5.0964
X4.7358Y-5.0964
X4.8358Y-5.0964
T5
X4.2648Y-4.8164
X4.8848Y-4.8164
T0
M30
