G04 #@! TF.GenerationSoftware,KiCad,Pcbnew,(5.99.0-10539-g7356f9568d)*
G04 #@! TF.CreationDate,2021-06-02T15:47:54+01:00*
G04 #@! TF.ProjectId,CM4IOv5,434d3449-4f76-4352-9e6b-696361645f70,rev?*
G04 #@! TF.SameCoordinates,Original*
G04 #@! TF.FileFunction,Copper,L3,Inr*
G04 #@! TF.FilePolarity,Positive*
%FSLAX46Y46*%
G04 Gerber Fmt 4.6, Leading zero omitted, Abs format (unit mm)*
G04 Created by KiCad (PCBNEW (5.99.0-10539-g7356f9568d)) date 2021-06-02 15:47:54*
%MOMM*%
%LPD*%
G01*
G04 APERTURE LIST*
G04 Aperture macros list*
%AMRoundRect*
0 Rectangle with rounded corners*
0 $1 Rounding radius*
0 $2 $3 $4 $5 $6 $7 $8 $9 X,Y pos of 4 corners*
0 Add a 4 corners polygon primitive as box body*
4,1,4,$2,$3,$4,$5,$6,$7,$8,$9,$2,$3,0*
0 Add four circle primitives for the rounded corners*
1,1,$1+$1,$2,$3*
1,1,$1+$1,$4,$5*
1,1,$1+$1,$6,$7*
1,1,$1+$1,$8,$9*
0 Add four rect primitives between the rounded corners*
20,1,$1+$1,$2,$3,$4,$5,0*
20,1,$1+$1,$4,$5,$6,$7,0*
20,1,$1+$1,$6,$7,$8,$9,0*
20,1,$1+$1,$8,$9,$2,$3,0*%
G04 Aperture macros list end*
G04 #@! TA.AperFunction,ComponentPad*
%ADD10R,0.850000X0.850000*%
G04 #@! TD*
G04 #@! TA.AperFunction,ComponentPad*
%ADD11O,0.850000X0.850000*%
G04 #@! TD*
G04 #@! TA.AperFunction,ComponentPad*
%ADD12RoundRect,0.250500X-0.499500X-0.499500X0.499500X-0.499500X0.499500X0.499500X-0.499500X0.499500X0*%
G04 #@! TD*
G04 #@! TA.AperFunction,ComponentPad*
%ADD13C,1.500000*%
G04 #@! TD*
G04 #@! TA.AperFunction,ComponentPad*
%ADD14C,2.500000*%
G04 #@! TD*
G04 #@! TA.AperFunction,ViaPad*
%ADD15C,0.450000*%
G04 #@! TD*
G04 APERTURE END LIST*
D10*
X124200000Y-100400000D03*
D11*
X124200000Y-101400000D03*
D12*
X110485000Y-116497500D03*
D13*
X111755000Y-119037500D03*
X113025000Y-116497500D03*
X114295000Y-119037500D03*
X115565000Y-116497500D03*
X116835000Y-119037500D03*
X118105000Y-116497500D03*
X119375000Y-119037500D03*
X120645000Y-116497500D03*
X121915000Y-119037500D03*
X110485000Y-121557500D03*
X113025000Y-122827500D03*
X119375000Y-122827500D03*
X121915000Y-121557500D03*
X109570000Y-129447500D03*
X112110000Y-129447500D03*
X120290000Y-129447500D03*
X122830000Y-129447500D03*
D14*
X108325000Y-122337500D03*
X124075000Y-122337500D03*
D15*
X121450000Y-112700000D03*
X124150000Y-117400000D03*
X102200000Y-110400000D03*
X101200000Y-106150000D03*
X108200000Y-118400000D03*
X119175011Y-112400000D03*
X101377101Y-107699704D03*
X112170483Y-112588469D03*
X101270484Y-90920278D03*
X101435806Y-104166129D03*
X109950000Y-103150000D03*
X101200000Y-106150000D03*
X101347273Y-100353306D03*
X101347273Y-100353306D03*
X124700000Y-110150000D03*
X100918000Y-109161016D03*
X111700000Y-96900000D03*
X106200000Y-108900000D03*
X101435806Y-98633871D03*
X125200000Y-89150000D03*
X102450000Y-114900000D03*
X101407690Y-95861537D03*
X101435806Y-102166129D03*
X106200000Y-109400000D03*
X119950000Y-103900000D03*
X122950000Y-97150000D03*
X101450000Y-97400000D03*
X114200000Y-112400000D03*
M02*
